<svg xmlns="http://www.w3.org/2000/svg" xmlns:xlink="http://www.w3.org/1999/xlink" version="1.1" x="0px" y="0px" viewBox="0 0 512 640" style="enable-background:new 0 0 512 512;" xml:space="preserve"><path d="M439.76,200.52c4.5,3.55,9.92,5.46,14.98,5.46c2.12,0,4.17-0.34,6.06-1.03c4.43-1.63,7.37-4.97,8.27-9.41  c0.07-0.36-0.06-0.74-0.35-0.97c-0.29-0.23-0.68-0.29-1.02-0.14c-4.66,1.99-7.37,1.45-10.22,0.88c-3.81-0.76-8.14-1.61-17.1,3.3  c-1.38-0.49-2.8-1.06-4.24-1.72c-0.1-0.04-0.19-0.06-0.29-0.07c-3.32-4.74-7.53-9.83-12.72-14.57c-1.6-10.66-3.97-21.11-7.07-31.32  c1.3,0.44,2.56,0.91,3.77,1.4c4.73,12.17,9.3,14.84,13.73,17.42c3.22,1.88,6.27,3.65,9.23,9.52c0.17,0.33,0.51,0.55,0.88,0.55  c0,0,0.01,0,0.01,0c0.37,0,0.71-0.21,0.88-0.54c2.56-4.87,2.36-10.39-0.55-15.55c-4.25-7.5-13.43-12.71-23.39-13.27  c-0.01,0-0.02,0-0.03,0c-1.81-0.73-3.59-1.36-5.27-1.89c-5.04-15.96-11.88-31.33-20.54-46c-3.29-5.58-6.85-11.02-10.63-16.3  c6.19,1.77,11.87,3.73,17.05,5.75c-0.08,0.18-0.13,0.38-0.09,0.59c0.34,1.86,0.77,3.87,1.32,5.91c0,0.01-0.01,0.02-0.01,0.03  c-0.65,9.96,3.4,19.7,10.33,24.83c3.1,2.29,6.49,3.46,9.9,3.46c1.83,0,3.67-0.34,5.47-1.02c0.35-0.13,0.6-0.45,0.64-0.82  c0.04-0.37-0.13-0.74-0.44-0.95c-5.47-3.65-6.86-6.89-8.33-10.32c-2.02-4.7-4.11-9.57-15.62-15.75c-0.45-1.66-0.84-3.39-1.18-5.19  c21.54,8.7,33.54,18.25,34.37,18.93l0,0.02c0.13,0.84,0.27,1.7,0.79,2.82c-1.07,0.3-2.02,1.2-2.62,2.54  c-0.65,1.47-0.83,3.5,0.25,4.7l0.2,0.21c0.06,0.07,0.12,0.12,0.14,0.13c0.05,0.22-0.1,1.25-0.32,2.66l-0.14,0.93  c-0.28,1.84,0.19,2.91,0.63,3.49c0.44,0.58,1.07,0.94,1.77,1.03l0.23,0.03c0.5,0.06,1.02,0.13,1.61,0.13c0.45,0,0.95-0.04,1.52-0.15  c0.19,0.7,0.59,1.4,1.19,2.05c1.08,1.17,2.85,2.11,4.36,1.6l0.27-0.1c0.08-0.03,0.15-0.06,0.16-0.07c0.22,0.04,1.09,0.58,2.28,1.32  l0.78,0.48c1.09,0.68,1.98,0.88,2.66,0.88c0.29,0,0.54-0.04,0.75-0.09c0.7-0.17,1.28-0.6,1.63-1.21l0.12-0.2  c0.43-0.73,0.86-1.49,1.16-2.69c0.41,0.18,0.86,0.28,1.34,0.28c0.72,0,1.5-0.2,2.29-0.6c1.44-0.73,2.85-2.19,2.77-3.81l-0.02-0.29  c-0.01-0.09-0.02-0.17-0.03-0.19c0.1-0.21,0.87-0.9,1.93-1.87l0.69-0.63c1.37-1.25,1.69-2.38,1.71-3.1  c0.02-0.73-0.24-1.41-0.73-1.92l-0.16-0.17c-1.09-1.14-2.12-2.21-5.81-3.29c0.59-0.41,1.09-0.82,1.46-1.29  c0.86-1.08,0.88-2.69,0.05-4.31c-0.74-1.43-2.22-2.83-3.82-2.75l-0.29,0.02c-0.09,0.01-0.17,0.02-0.19,0.03  c-0.21-0.1-0.91-0.86-1.88-1.92l-0.63-0.69c-1.26-1.37-2.39-1.68-3.11-1.69c-0.72-0.02-1.41,0.24-1.91,0.74l-0.17,0.17  c-0.23,0.22-0.46,0.45-0.69,0.7c-0.16-0.04-0.33-0.07-0.5-0.1c-1.58-0.22-3.55,0.16-4.39,1.51l-0.15,0.24  c-0.05,0.08-0.08,0.14-0.08,0.16c-0.2,0.11-1.21,0.24-2.6,0.41l-0.91,0.12c-1.82,0.23-2.71,0.97-3.14,1.54  c-2.56-1.96-10.81-7.91-24.15-14.25c3.31-1.5,9.75-4.89,13.61-10c0.03,0.04,0.06,0.08,0.1,0.12c0.73,0.78,2.01,1.56,3.23,1.14  l0.18-0.06c0.23,0.11,0.72,0.42,1.31,0.79l0.51,0.32c0.78,0.48,1.43,0.63,1.93,0.63c0.22,0,0.42-0.03,0.58-0.07  c0.55-0.14,1-0.48,1.28-0.96l0.07-0.13c0.25-0.43,0.5-0.87,0.7-1.5c0.21,0.05,0.42,0.09,0.64,0.09c0.53,0,1.09-0.14,1.66-0.43  c0.97-0.49,2.07-1.53,2.01-2.82l-0.01-0.2c0.17-0.19,0.61-0.58,1.14-1.07l0.46-0.41c0.99-0.9,1.22-1.74,1.24-2.28  c0.02-0.57-0.19-1.11-0.57-1.51l-0.1-0.11c-0.65-0.68-1.33-1.37-3.33-2.05c0.19-0.16,0.36-0.33,0.5-0.51  c0.65-0.82,0.68-2.02,0.07-3.2c-0.5-0.96-1.5-2.09-2.83-1.99l-0.2,0.01c-0.19-0.17-0.59-0.6-1.08-1.13l-0.41-0.45  c-0.91-0.98-1.74-1.21-2.29-1.22c-0.56,0-1.11,0.19-1.51,0.58l-0.11,0.11c-0.11,0.11-0.22,0.22-0.34,0.34  c-0.05-0.01-0.1-0.02-0.16-0.03c-1.06-0.15-2.54,0.06-3.22,1.15l-0.1,0.16c-0.25,0.06-0.82,0.13-1.52,0.22l-0.59,0.08  c-1.31,0.17-1.97,0.72-2.29,1.14c-0.34,0.45-0.48,1-0.39,1.55l0.02,0.14c0.08,0.49,0.16,0.99,0.4,1.61c-0.65,0.3-1.2,0.9-1.57,1.72  c-0.44,0.99-0.64,2.49,0.22,3.45l0.13,0.14v0c-0.01,0.25-0.1,0.84-0.21,1.55l-0.09,0.61c-0.2,1.32,0.15,2.12,0.48,2.55  c0.35,0.45,0.84,0.74,1.4,0.81l0.15,0.02c0.25,0.03,0.52,0.06,0.8,0.07c-4.41,5.69-12.55,9.18-14.32,9.89  c-8.08-3.69-17.86-7.43-29.2-10.52c-9.7-13.14-20.85-25.24-33.17-36.01c8.66,4.82,16.99,8.65,25.38,11.21  c10.83,7.37,22.93,11.24,33.9,11.24c5.93,0,11.54-1.13,16.42-3.46c8.53-4.06,13.63-11.41,14.37-20.68c0.03-0.36-0.14-0.7-0.43-0.9  c-0.29-0.2-0.67-0.23-1-0.08c-10.66,5.06-17.32,3.97-24.37,2.8c-9.43-1.56-19.19-3.16-38.79,9.02  c-11.47-3.56-22.86-9.55-35.21-17.19c-0.02-0.01-0.05-0.01-0.07-0.03c-4.47-3.48-9.05-6.8-13.77-9.92c0,0,0,0-0.01,0  C303.6,15.16,280.22,7.81,256,7.81c-9.22,0-18.33,1.09-27.26,3.21c-10.19,0.05-20.31,1.24-30.25,3.62  c-41.94,10.04-77.56,40.45-100.31,85.62c-22.46,44.6-31.09,100.79-24.29,158.23c0.06,0.51,0.49,0.88,0.99,0.88  c0.04,0,0.08,0,0.12-0.01c0.55-0.07,0.94-0.56,0.88-1.11c-6.75-57.06,1.81-112.85,24.09-157.1c22.48-44.64,57.63-74.67,98.99-84.58  c7.04-1.69,14.17-2.75,21.36-3.24c-31.41,9.86-60.28,32.7-83.56,66.72c-31.79,46.45-49.48,108.29-49.79,174.14  c0,0.08,0.03,0.14,0.04,0.21c-0.09,0.15-0.18,0.32-0.27,0.51c-0.66-0.26-1.47-0.26-2.33,0.04c-1.02,0.36-2.25,1.24-2.36,2.53  l-0.01,0.2c-0.2,0.16-0.68,0.5-1.27,0.91l-0.5,0.35c-1.1,0.76-1.44,1.56-1.53,2.09c-0.09,0.56,0.04,1.12,0.37,1.57l0.09,0.12  c0.55,0.76,1.13,1.54,3.02,2.47c-0.2,0.13-0.39,0.27-0.56,0.43c-0.76,0.72-0.94,1.91-0.49,3.16c0.36,1.02,1.25,2.25,2.54,2.34  l0.2,0.01c0.17,0.19,0.5,0.68,0.91,1.26l0.35,0.5c0.77,1.1,1.57,1.43,2.1,1.51c0.04,0.01,0.08,0.01,0.12,0.01  c-1.12,11.75-1.32,23.72-0.58,35.58c0.36,5.74,0.95,11.43,1.73,17.06c-13.4-12.78-19.51-27.48-20.61-30.34  c0-0.01,0.01-0.01,0.02-0.02l0.14-0.25c0.04-0.08,0.07-0.15,0.07-0.16c0.2-0.12,1.2-0.29,2.58-0.52l0.9-0.15  c1.81-0.31,2.67-1.08,3.07-1.67c0.41-0.59,0.56-1.3,0.42-1.98l-0.04-0.22c-0.16-0.83-0.34-1.69-0.91-2.79  c1.06-0.34,1.97-1.28,2.51-2.65c0.59-1.5,0.68-3.53-0.45-4.68l-0.2-0.2c-0.07-0.07-0.12-0.11-0.14-0.12  c-0.06-0.22,0.05-1.25,0.21-2.68l0.1-0.93c0.2-1.85-0.31-2.9-0.78-3.46c-0.46-0.56-1.11-0.9-1.81-0.95l-0.23-0.02  c-0.89-0.07-1.82-0.14-3.13,0.15c-0.22-0.69-0.65-1.37-1.28-1.99c-1.13-1.12-2.94-1.99-4.42-1.42l-0.26,0.11  c-0.08,0.04-0.15,0.07-0.16,0.08c-0.23-0.03-1.11-0.53-2.33-1.22l-0.8-0.45c-1.6-0.9-2.75-0.85-3.44-0.64  c-0.69,0.2-1.25,0.66-1.58,1.28l-0.11,0.2c-0.4,0.75-0.8,1.52-1.05,2.73c-1.04-0.4-2.33-0.25-3.61,0.48  c-1.4,0.79-2.75,2.31-2.6,3.92l0.03,0.29c0.01,0.09,0.03,0.17,0.03,0.19c-0.09,0.21-0.83,0.94-1.85,1.95l-0.66,0.65  c-1.32,1.31-1.59,2.45-1.58,3.17c0.01,0.73,0.29,1.4,0.81,1.88l0.17,0.16c1.14,1.09,2.21,2.11,5.94,3.04  c-0.58,0.43-1.05,0.86-1.41,1.35c-0.82,1.12-0.77,2.73,0.13,4.3c0.8,1.4,2.33,2.75,3.93,2.58l0.29-0.03  c0.09-0.01,0.17-0.03,0.19-0.04c0.21,0.09,0.94,0.83,1.96,1.84l0.66,0.66c1.29,1.28,2.41,1.56,3.14,1.56c0.02,0,0.03,0,0.05,0  c0.73-0.01,1.39-0.3,1.88-0.82l0.16-0.17c0.22-0.23,0.44-0.48,0.67-0.74c0.16,0.03,0.33,0.06,0.5,0.08c0.19,0.02,0.39,0.03,0.6,0.03  c0.7,0,1.43-0.12,2.08-0.38c0.91,2.27,3.29,7.68,7.47,14.18c-0.62-0.25-1.27-0.49-1.92-0.72c0,0,0,0,0,0  c-6.38-5.04-14.64-6.78-21.04-4.43c-4.43,1.63-7.37,4.97-8.27,9.41c-0.07,0.36,0.06,0.74,0.35,0.97c0.18,0.15,0.41,0.22,0.63,0.22  c0.13,0,0.27-0.03,0.39-0.08c4.66-1.99,7.36-1.45,10.22-0.88c3.81,0.76,8.14,1.61,17.11-3.3c1.38,0.49,2.8,1.06,4.24,1.72  c0.09,0.04,0.19,0.05,0.29,0.06c3.4,4.87,7.76,10.13,13.21,15.02c1.6,10.51,3.94,20.81,6.99,30.88c-1.3-0.44-2.56-0.91-3.77-1.4  c-4.73-12.17-9.31-14.84-13.73-17.42c-3.22-1.88-6.27-3.65-9.23-9.52c-0.17-0.33-0.51-0.55-0.88-0.55c-0.35,0.03-0.72,0.2-0.89,0.54  c-2.56,4.87-2.36,10.39,0.56,15.55c4.25,7.5,13.43,12.71,23.39,13.27c0.01,0,0.03,0,0.04,0c1.81,0.73,3.58,1.36,5.26,1.89  c5.04,15.96,11.88,31.33,20.54,46c3.29,5.58,6.85,11.02,10.63,16.3c-6.19-1.77-11.87-3.73-17.05-5.75c0.08-0.18,0.13-0.38,0.09-0.59  c-0.34-1.86-0.77-3.86-1.32-5.91c0-0.01,0.01-0.02,0.01-0.03c0.65-9.96-3.4-19.7-10.33-24.83c-4.76-3.52-10.22-4.39-15.36-2.44  c-0.35,0.13-0.6,0.45-0.64,0.82s0.13,0.74,0.44,0.95c5.47,3.65,6.86,6.89,8.33,10.32c2.02,4.71,4.11,9.57,15.62,15.75  c0.45,1.66,0.84,3.39,1.18,5.19c-20.81-8.41-32.72-17.61-34.25-18.83l-0.02-0.12c-0.13-0.84-0.27-1.7-0.79-2.82  c1.07-0.3,2.02-1.2,2.62-2.54c0.65-1.47,0.83-3.5-0.25-4.7l-0.2-0.21c-0.06-0.07-0.12-0.12-0.14-0.13c-0.05-0.23,0.1-1.25,0.32-2.67  l0.14-0.92c0.28-1.84-0.19-2.91-0.63-3.49c-0.44-0.58-1.07-0.94-1.77-1.03l-0.23-0.03c-0.89-0.11-1.81-0.22-3.13,0.02  c-0.19-0.7-0.59-1.4-1.19-2.04c-1.08-1.17-2.85-2.11-4.36-1.6l-0.27,0.1c-0.08,0.03-0.15,0.06-0.16,0.07  c-0.22-0.04-1.09-0.58-2.28-1.32l-0.78-0.48c-1.56-0.97-2.71-0.96-3.41-0.79c-0.7,0.17-1.28,0.6-1.63,1.21l-0.11,0.19  c-0.43,0.73-0.86,1.49-1.17,2.69c-1.02-0.45-2.32-0.35-3.63,0.32c-1.44,0.73-2.85,2.19-2.77,3.8l0.02,0.29  c0.01,0.09,0.02,0.17,0.03,0.19c-0.1,0.21-0.87,0.9-1.93,1.87l-0.69,0.63c-1.37,1.25-1.69,2.38-1.71,3.1  c-0.02,0.73,0.23,1.41,0.73,1.92l0.16,0.17c1.09,1.13,2.12,2.21,5.81,3.29c-0.59,0.41-1.09,0.82-1.46,1.29  c-0.86,1.08-0.88,2.69-0.05,4.3c0.74,1.43,2.2,2.85,3.82,2.75l0.29-0.02c0.09-0.01,0.17-0.02,0.19-0.03  c0.21,0.1,0.91,0.86,1.88,1.92l0.63,0.68c1.26,1.37,2.39,1.68,3.11,1.69c0.03,0,0.05,0,0.07,0c0.7,0,1.35-0.26,1.84-0.74l0.16-0.16  c0.23-0.22,0.47-0.46,0.7-0.72c0.16,0.04,0.33,0.07,0.5,0.1c0.28,0.04,0.56,0.06,0.86,0.06c1.38,0,2.84-0.45,3.54-1.57l0.15-0.24  c0.05-0.08,0.08-0.14,0.08-0.16c0.2-0.11,1.21-0.24,2.6-0.41l0.91-0.12c1.77-0.23,2.66-0.92,3.1-1.49  c2.64,2.01,10.86,7.92,24.08,14.2c-3.3,1.49-9.69,4.85-13.56,9.93c-0.02-0.02-0.03-0.03-0.04-0.05c-0.73-0.78-2.01-1.56-3.23-1.14  l-0.18,0.06c-0.23-0.11-0.71-0.42-1.31-0.79l-0.51-0.32c-1.12-0.7-1.98-0.69-2.5-0.56c-0.55,0.14-1,0.48-1.28,0.96l-0.08,0.13  c-0.25,0.43-0.5,0.87-0.7,1.5c-0.69-0.17-1.5-0.06-2.31,0.35c-0.97,0.49-2.07,1.53-2,2.82l0.01,0.2c-0.17,0.19-0.61,0.59-1.14,1.07  l-0.45,0.41c-0.99,0.9-1.22,1.74-1.24,2.28c-0.02,0.57,0.19,1.11,0.57,1.51l0.1,0.11c0.65,0.68,1.33,1.38,3.33,2.05  c-0.19,0.16-0.36,0.33-0.5,0.51c-0.65,0.82-0.68,2.02-0.07,3.2c0.5,0.96,1.54,2.06,2.83,1.99l0.2-0.01c0.19,0.17,0.59,0.6,1.08,1.13  l0.41,0.45c0.91,0.99,1.74,1.21,2.29,1.22c0.02,0,0.04,0,0.06,0c0.55,0,1.06-0.21,1.45-0.58l0.11-0.11  c0.11-0.11,0.23-0.22,0.34-0.34c0.05,0.01,0.1,0.02,0.16,0.03c0.19,0.03,0.4,0.04,0.62,0.04c0.96,0,2.05-0.3,2.6-1.19l0.1-0.16  c0.25-0.06,0.82-0.13,1.52-0.22l0.59-0.08c1.31-0.17,1.97-0.72,2.29-1.14c0.34-0.45,0.48-1,0.39-1.55l-0.02-0.15  c-0.08-0.49-0.16-0.99-0.4-1.61c0.65-0.3,1.2-0.9,1.57-1.72c0.44-0.99,0.64-2.49-0.22-3.46l-0.13-0.14h0  c0.01-0.26,0.1-0.84,0.21-1.55l0.09-0.6c0.2-1.32-0.15-2.12-0.48-2.55c-0.35-0.46-0.84-0.74-1.4-0.81l-0.15-0.02  c-0.29-0.04-0.59-0.06-0.91-0.07c4.41-5.69,12.55-9.18,14.32-9.89c8.08,3.69,17.86,7.43,29.2,10.52c9.7,13.14,20.85,25.24,33.16,36  c-8.67-4.82-17-8.67-25.4-11.22c-16.68-11.34-36.38-14.39-50.3-7.76c-8.53,4.06-13.63,11.41-14.37,20.68  c-0.03,0.36,0.14,0.7,0.43,0.9c0.17,0.12,0.37,0.18,0.57,0.18c0.15,0,0.29-0.03,0.43-0.1c10.66-5.06,17.32-3.97,24.36-2.8  c9.43,1.56,19.19,3.16,38.79-9.02c11.47,3.56,22.86,9.55,35.21,17.19c0.03,0.02,0.06,0.02,0.08,0.04c4.46,3.47,9.04,6.79,13.75,9.91  c21.89,14.5,45.27,21.86,69.49,21.86c9.2,0,18.28-1.09,27.19-3.19c10.41-0.01,20.75-1.2,30.91-3.63  c42-10.06,77.66-40.54,100.41-85.82c22.46-44.71,31.03-101.03,24.13-158.57c-0.07-0.55-0.56-0.94-1.11-0.87  c-0.55,0.07-0.94,0.56-0.87,1.11c6.86,57.16-1.64,113.07-23.93,157.43c-22.48,44.75-57.67,74.85-99.09,84.77  c-7.28,1.74-14.66,2.82-22.09,3.29c31.45-9.82,60.37-32.67,83.69-66.72c31.79-46.41,49.48-108.22,49.83-174.03  c0-0.07-0.03-0.13-0.04-0.2c0.13-0.2,0.26-0.42,0.38-0.68c0.32,0.13,0.67,0.19,1.04,0.19c0.41,0,0.85-0.08,1.29-0.23  c1.02-0.36,2.25-1.24,2.36-2.53l0.01-0.2c0.2-0.17,0.68-0.5,1.27-0.91l0.5-0.34c1.1-0.76,1.44-1.56,1.53-2.09  c0.09-0.56-0.04-1.12-0.37-1.57l-0.09-0.12c-0.55-0.76-1.14-1.54-3.02-2.47c0.2-0.13,0.39-0.27,0.56-0.43  c0.76-0.72,0.94-1.9,0.49-3.16c-0.36-1.02-1.25-2.25-2.54-2.34l-0.2-0.01c-0.17-0.19-0.5-0.68-0.91-1.26l-0.35-0.5  c-0.77-1.1-1.57-1.43-2.1-1.51c-0.08-0.01-0.15-0.01-0.23-0.01c1.12-11.75,1.33-23.71,0.58-35.58c-0.35-5.59-0.92-11.12-1.67-16.6  c13.26,12.86,19.4,27.72,20.41,30.33c-0.23,0.11-1.21,0.28-2.56,0.51l-0.91,0.15c-1.81,0.31-2.67,1.08-3.07,1.67  c-0.41,0.59-0.55,1.3-0.42,1.98l0.04,0.22c0.16,0.83,0.34,1.69,0.91,2.79c-1.06,0.34-1.97,1.28-2.5,2.65  c-0.59,1.5-0.68,3.53,0.45,4.68l0.2,0.2c0.07,0.07,0.12,0.11,0.14,0.12c0.06,0.22-0.05,1.25-0.21,2.67l-0.1,0.93  c-0.2,1.85,0.31,2.9,0.78,3.46c0.46,0.56,1.11,0.9,1.81,0.95l0.23,0.02c0.4,0.03,0.81,0.07,1.26,0.07c0.54,0,1.15-0.06,1.87-0.22  c0.22,0.69,0.65,1.37,1.28,1.99c1.13,1.12,2.94,1.99,4.42,1.41l0.26-0.11c0.08-0.04,0.15-0.07,0.16-0.08  c0.23,0.03,1.11,0.53,2.33,1.22l0.8,0.45c1.04,0.58,1.89,0.77,2.54,0.77c0.35,0,0.65-0.05,0.89-0.12c0.69-0.2,1.25-0.66,1.58-1.28  l0.11-0.2c0.4-0.75,0.8-1.52,1.05-2.74c0.37,0.14,0.77,0.22,1.19,0.22c0.77,0,1.6-0.23,2.42-0.7c1.4-0.79,2.75-2.31,2.6-3.92  l-0.03-0.29c-0.01-0.09-0.03-0.17-0.03-0.19c0.09-0.21,0.83-0.94,1.85-1.95l0.66-0.65c1.32-1.31,1.59-2.45,1.58-3.17  c-0.01-0.73-0.29-1.4-0.81-1.88l-0.17-0.16c-1.14-1.09-2.21-2.11-5.94-3.04c0.58-0.43,1.05-0.86,1.41-1.35  c0.82-1.12,0.77-2.73-0.13-4.3c-0.8-1.4-2.32-2.74-3.93-2.58l-0.29,0.03c-0.09,0.01-0.17,0.03-0.19,0.04  c-0.21-0.09-0.95-0.83-1.96-1.84l-0.66-0.65c-1.31-1.31-2.43-1.59-3.18-1.56c-0.73,0.01-1.39,0.3-1.88,0.82l-0.16,0.17  c-0.22,0.23-0.44,0.48-0.67,0.74c-0.16-0.03-0.33-0.06-0.5-0.08c-1-0.1-2.13,0.05-3.04,0.51c-1-2.42-3.45-7.88-7.64-14.35  c0.62,0.25,1.26,0.49,1.92,0.73C439.75,200.51,439.75,200.52,439.76,200.52z M442.26,164.72c2.21,3.91,2.66,8.04,1.32,11.83  c-2.94-4.99-6.03-6.79-9.02-8.54c-3.89-2.27-7.91-4.63-12.11-14.56c7.29,3.38,12.6,7.75,15.29,12.67c0.18,0.33,0.52,0.52,0.88,0.52  c0.16,0,0.33-0.04,0.48-0.12c0.48-0.26,0.66-0.87,0.4-1.36c-2.72-4.99-7.34-8.76-12.35-11.58  C433.7,155.48,439.3,159.5,442.26,164.72z M418.13,114.54c1.37,3.19,2.78,6.47,7.38,10c-3.92,0.88-7.97-0.07-11.58-2.74  c-4.83-3.57-8.13-9.62-9.2-16.36c2.19,5.32,5.37,10.36,9.99,13.67c0.18,0.13,0.38,0.19,0.58,0.19c0.31,0,0.62-0.15,0.81-0.42  c0.32-0.45,0.22-1.07-0.23-1.4c-4.56-3.27-8.25-9.07-10.72-16.72C414.5,106.13,416.35,110.4,418.13,114.54z M434.93,86.09  l-0.12,0.15c-0.15,0.04-0.49-0.02-0.96-0.32l-0.51-0.32c-1.79-1.11-2.11-1.32-3.05-0.97l-0.14,0.05c-0.13,0.06-0.66-0.12-1.11-0.61  c-0.36-0.38-0.48-0.76-0.41-0.92c0.18-0.43,0.76-1.02,1.42-1.7c0.22-0.23,0.46-0.47,0.71-0.73c0.51,0.32,1.09,0.53,1.77,0.59  c0.16,0.02,0.33,0.02,0.5,0.02c0.3,0,0.6-0.03,0.9-0.08c0.28,0.47,0.55,0.94,0.78,1.36c0.33,0.6,0.62,1.12,0.92,1.56  C435.5,85.12,435.26,85.54,434.93,86.09z M433.59,75.46c0.02,0,0.04,0,0.06,0c1.42,0.1,1.98,1.25,2.03,2.3  c0.03,0.64-0.78,1.19-1.55,1.42c-0.46,0.14-0.95,0.19-1.4,0.15c-1.15-0.11-1.77-0.89-1.83-2.32c-0.01-0.17,0.1-0.37,0.31-0.57  C431.86,75.82,433.09,75.46,433.59,75.46z M442.37,78.25l0.12,0.17c0,0.06-0.04,0.37-0.58,0.87l-0.45,0.41  c-1.58,1.43-1.86,1.69-1.79,2.7l0.01,0.15c0.01,0.16-0.3,0.62-0.92,0.94c-0.48,0.25-0.89,0.26-1.03,0.14  c-0.36-0.29-0.8-1.09-1.26-1.94c-0.19-0.34-0.39-0.71-0.61-1.09c1.17-0.69,1.86-1.75,1.81-2.92c-0.02-0.35-0.07-0.68-0.15-1  c0.19-0.11,0.37-0.23,0.55-0.33c0.43,0.02,0.82,0.07,1.16,0.17C441.27,77.11,441.75,77.61,442.37,78.25z M435.06,68.91l0.41,0.45  c1.44,1.57,1.71,1.86,2.71,1.77l0.15-0.01c0.2,0.01,0.63,0.3,0.94,0.91c0.25,0.48,0.26,0.89,0.15,1.03  c-0.3,0.38-1.02,0.79-1.86,1.28c-0.29,0.17-0.6,0.35-0.93,0.54c-0.52-0.62-1.22-1.08-2.04-1.29c0.03-0.5,0.07-0.99,0.11-1.43  c0.11-1.19,0.2-2.14-0.03-2.95c-0.09-0.33-0.27-0.62-0.49-0.87l0.01-0.01C434.24,68.33,434.56,68.36,435.06,68.91z M426.95,70.91  l0.59-0.08c2.09-0.27,2.47-0.31,2.98-1.17l0.08-0.12c0.08-0.13,0.59-0.32,1.25-0.23c0.52,0.07,0.85,0.29,0.9,0.46  c0.13,0.45,0.05,1.27-0.04,2.21c-0.05,0.49-0.09,1.04-0.12,1.62c-0.86,0.2-1.82,0.63-2.53,1.22c-0.57-0.23-1.12-0.47-1.61-0.69  c-0.65-0.29-1.22-0.55-1.75-0.73c-0.48-0.8-0.58-1.3-0.68-1.93l0-0.19C426.09,71.15,426.4,70.98,426.95,70.91z M424.99,82.18  c-0.04-0.05-0.2-0.31-0.09-1.04l0.09-0.61c0.32-2.11,0.38-2.49-0.32-3.22l-0.1-0.11c-0.11-0.12-0.16-0.67,0.12-1.3  c0.22-0.49,0.53-0.76,0.71-0.76c0,0,0,0,0,0c0.43,0,1.34,0.41,2.21,0.8c0.41,0.18,0.86,0.38,1.33,0.58  c-0.04,0.19-0.06,0.39-0.05,0.59c0.04,0.82,0.22,1.53,0.53,2.13c-0.27,0.29-0.54,0.57-0.79,0.82c-0.78,0.79-1.39,1.43-1.75,2.14  c-0.69,0.14-1.14,0.1-1.7,0.03L424.99,82.18z M438.73,128.32l-0.24-0.03c-0.17-0.02-0.31-0.1-0.42-0.25  c-0.29-0.38-0.38-1.1-0.24-1.98l0.14-0.92c0.49-3.2,0.54-3.54-0.34-4.47l-0.16-0.17c-0.33-0.37-0.4-1.45,0.09-2.55  c0.39-0.89,1.01-1.47,1.56-1.47c0,0,0,0,0,0c0.77,0,2.13,0.62,3.58,1.27c0.74,0.34,1.58,0.7,2.45,1.05  c-0.13,0.38-0.21,0.78-0.19,1.18c0.06,1.31,0.37,2.44,0.91,3.36c-0.51,0.55-1.01,1.07-1.46,1.53c-1.24,1.26-2.22,2.26-2.69,3.36  c0,0,0,0.01,0,0.01C440.43,128.53,439.67,128.43,438.73,128.32z M451.6,116.94c0.04,0,0.08,0,0.11,0c2.52,0.17,3.5,2.27,3.58,4.01  c0.05,1.27-1.33,2.26-2.73,2.69c-0.78,0.24-1.58,0.32-2.33,0.25c-2.57-0.25-3.19-2.33-3.26-4.03c-0.02-0.42,0.19-0.84,0.63-1.27  C448.7,117.53,450.73,116.94,451.6,116.94z M453.96,134.14c-0.08,0.14-0.21,0.23-0.38,0.27c-0.45,0.11-1.13-0.09-1.87-0.55  l-0.77-0.48c-2.72-1.69-3-1.87-4.19-1.43l-0.22,0.08c-0.46,0.16-1.45-0.21-2.25-1.07c-0.65-0.7-0.93-1.47-0.72-1.97  c0.32-0.75,1.23-1.67,2.28-2.74c0.42-0.43,0.89-0.91,1.37-1.43c0.77,0.59,1.73,0.95,2.83,1.06c0.23,0.02,0.47,0.03,0.7,0.03  c0.54,0,1.08-0.08,1.62-0.19c0.52,0.84,0.98,1.68,1.39,2.42c0.53,0.97,1,1.8,1.48,2.49c-0.2,1.65-0.63,2.38-1.15,3.29L453.96,134.14  z M465.33,121.35l0.17,0.17c0.12,0.12,0.17,0.27,0.17,0.46c-0.02,0.47-0.4,1.09-1.06,1.69l-0.69,0.63c-2.4,2.18-2.65,2.41-2.55,3.69  l0.02,0.24c0.03,0.5-0.61,1.38-1.68,1.92c-0.87,0.44-1.71,0.5-2.14,0.15c-0.63-0.51-1.29-1.71-2.05-3.1  c-0.36-0.65-0.76-1.37-1.2-2.11c1.91-0.93,3.05-2.5,2.97-4.22c-0.03-0.63-0.15-1.22-0.32-1.78c0.46-0.29,0.9-0.55,1.33-0.8  c0.75,0.03,1.45,0.11,2.04,0.29C463.57,119.52,464.35,120.33,465.33,121.35z M451.87,106.42l0.18-0.17  c0.12-0.12,0.29-0.17,0.46-0.17c0.47,0.01,1.09,0.4,1.7,1.05l0.63,0.69c2.19,2.39,2.42,2.63,3.7,2.53l0.24-0.02  c0.51,0,1.38,0.6,1.93,1.67c0.45,0.87,0.51,1.71,0.17,2.14c-0.52,0.65-1.66,1.31-2.98,2.07c-0.55,0.32-1.17,0.68-1.8,1.07  c-0.83-1.16-2.05-1.94-3.52-2.22c0.04-0.95,0.12-1.86,0.19-2.66c0.17-1.76,0.3-3.16-0.03-4.3c-0.17-0.59-0.53-1.09-1.02-1.5  C451.76,106.54,451.81,106.48,451.87,106.42z M439.61,110.77c0.28-0.37,0.93-0.64,1.8-0.75l0.91-0.12c3.17-0.4,3.5-0.44,4.15-1.54  l0.12-0.2c0.26-0.41,1.26-0.76,2.42-0.59c0.94,0.13,1.65,0.55,1.8,1.07c0.22,0.78,0.1,2.07-0.04,3.56c-0.08,0.85-0.16,1.82-0.2,2.84  c-1.41,0.27-3.15,1-4.26,2.04c-0.98-0.38-1.93-0.8-2.77-1.18c-1.06-0.48-1.98-0.89-2.81-1.15c-0.89-1.42-1.03-2.26-1.19-3.3  l-0.04-0.23C439.46,111.07,439.5,110.92,439.61,110.77z M413,49.77c6.7,1.11,13.61,2.25,23.93-2.23  c-1.14,7.72-5.72,13.83-13.04,17.32c-11.56,5.51-28.05,3.73-42.68-4.2c5.34,1.17,10.73,1.81,16.3,1.81c6.36,0,12.93-0.81,19.86-2.55  c0.54-0.13,0.86-0.68,0.73-1.21c-0.13-0.54-0.68-0.86-1.21-0.73c-14.35,3.59-27.14,3.11-39.75-0.39  C395.07,46.81,404.18,48.31,413,49.77z M54.51,314.74c-1.41-0.28-2.85-0.57-4.5-0.57c-1.45,0-3.06,0.22-4.98,0.85  c1.1-2.82,3.34-4.95,6.46-6.09c3.9-1.43,8.59-1.14,13.03,0.62c-3.97-0.65-8.04-0.6-11.71,0.81c-0.52,0.2-0.77,0.78-0.57,1.29  c0.2,0.52,0.78,0.77,1.29,0.57c3.95-1.53,9.15-1.39,15.04,0.31C61.4,316.1,57.9,315.41,54.51,314.74z M73.19,275.25l0.24,0.02  c0.17,0.01,0.31,0.09,0.43,0.24c0.3,0.36,0.42,1.08,0.33,1.97l-0.1,0.92c-0.35,3.22-0.39,3.56,0.53,4.45l0.17,0.17  c0.35,0.36,0.46,1.43,0.02,2.55c-0.36,0.91-0.95,1.51-1.5,1.53c-0.76,0.02-2.16-0.52-3.64-1.12c-0.76-0.3-1.61-0.63-2.49-0.94  c0.12-0.39,0.18-0.78,0.14-1.18c-0.11-1.31-0.48-2.42-1.05-3.32c0.48-0.57,0.96-1.11,1.4-1.59c1.19-1.32,2.12-2.35,2.54-3.47  c0,0,0,0,0-0.01C71.48,275.12,72.25,275.18,73.19,275.25z M60.75,287.16c-0.01,0-0.03,0-0.04,0c-2.52-0.07-3.59-2.12-3.74-3.85  c-0.11-1.26,1.23-2.32,2.61-2.8c0.67-0.24,1.37-0.36,2.03-0.36c0.09,0,0.19,0,0.28,0.01c2.57,0.14,3.28,2.19,3.43,3.88  c0.04,0.42-0.16,0.85-0.57,1.29C63.66,286.48,61.57,287.16,60.75,287.16z M57.62,270.29l0.11-0.21c0.08-0.14,0.2-0.24,0.37-0.29  c0.44-0.13,1.13,0.04,1.89,0.47l0.8,0.45c2.78,1.57,3.07,1.74,4.24,1.25l0.22-0.09c0.45-0.18,1.46,0.14,2.29,0.97  c0.68,0.67,0.99,1.43,0.8,1.93c-0.29,0.76-1.15,1.72-2.16,2.83c-0.4,0.45-0.85,0.95-1.3,1.48c-0.8-0.55-1.76-0.88-2.87-0.94  c-0.76-0.04-1.55,0.04-2.33,0.24c-0.55-0.81-1.05-1.62-1.48-2.34c-0.57-0.95-1.07-1.75-1.58-2.42  C56.74,271.97,57.13,271.22,57.62,270.29z M46.75,283.16c-0.12-0.12-0.18-0.27-0.19-0.46c0-0.47,0.35-1.1,0.99-1.73l0.66-0.65  c2.31-2.28,2.55-2.52,2.4-3.79l-0.03-0.24c-0.05-0.5,0.55-1.4,1.6-1.99c0.85-0.48,1.68-0.58,2.13-0.24  c0.65,0.48,1.36,1.65,2.17,3.01c0.38,0.64,0.82,1.34,1.29,2.06c-1.86,1.01-2.94,2.62-2.79,4.34c0.05,0.63,0.2,1.21,0.39,1.76  c-0.45,0.31-0.88,0.59-1.3,0.86c-0.75,0.01-1.45-0.05-2.05-0.2c-3.27-0.8-4.08-1.58-5.11-2.56L46.75,283.16z M60.99,297.67  l-0.17,0.18c-0.12,0.12-0.26,0.19-0.45,0.19c-0.43,0-1.11-0.35-1.74-0.98l-0.66-0.66c-2.29-2.29-2.53-2.53-3.8-2.37l-0.24,0.03  c-0.49,0.06-1.4-0.54-2-1.58c-0.48-0.85-0.58-1.68-0.26-2.13c0.49-0.67,1.6-1.38,2.89-2.19c0.54-0.34,1.14-0.73,1.75-1.15  c0.88,1.12,2.13,1.85,3.61,2.07c0,0.95-0.04,1.86-0.08,2.67c-0.09,1.77-0.16,3.17,0.21,4.3c0.19,0.58,0.57,1.07,1.09,1.46  C61.1,297.55,61.04,297.61,60.99,297.67z M63.8,296.4c-0.95-0.09-1.67-0.48-1.84-1c-0.26-0.77-0.19-2.06-0.11-3.56  c0.04-0.85,0.08-1.82,0.08-2.84c1.4-0.32,3.1-1.13,4.17-2.21c1,0.34,1.96,0.71,2.82,1.06c1.08,0.43,2.01,0.79,2.85,1.02  c0.96,1.39,1.13,2.23,1.34,3.26l0.05,0.23c0.03,0.16,0,0.31-0.11,0.46c-0.26,0.38-0.9,0.68-1.76,0.83l-0.9,0.15  c-3.15,0.54-3.48,0.59-4.08,1.71l-0.11,0.21C65.95,296.13,64.97,296.52,63.8,296.4z M69.74,347.28c-2.21-3.91-2.66-8.04-1.31-11.83  c2.94,5,6.03,6.79,9.02,8.54c3.89,2.27,7.91,4.63,12.11,14.56c-7.29-3.38-12.6-7.75-15.29-12.67c-0.26-0.48-0.87-0.66-1.36-0.4  c-0.48,0.26-0.66,0.87-0.4,1.36c2.72,4.99,7.34,8.76,12.35,11.58C78.3,356.52,72.7,352.5,69.74,347.28z M93.87,397.46  c-1.37-3.19-2.78-6.47-7.38-10c3.92-0.88,7.97,0.07,11.58,2.74c4.83,3.57,8.13,9.62,9.2,16.37c-2.19-5.32-5.37-10.36-9.99-13.67  c-0.45-0.32-1.07-0.22-1.4,0.23c-0.32,0.45-0.22,1.07,0.23,1.4c4.56,3.27,8.25,9.07,10.72,16.72  C97.5,405.87,95.65,401.6,93.87,397.46z M77.18,425.91l0.12-0.15c0.15-0.04,0.49,0.02,0.96,0.32l0.51,0.32  c1.79,1.11,2.11,1.31,3.05,0.97l0.14-0.05c0.14-0.05,0.66,0.12,1.12,0.61c0.36,0.38,0.48,0.76,0.41,0.92  c-0.18,0.43-0.76,1.02-1.42,1.69c-0.22,0.23-0.46,0.47-0.71,0.73c-0.51-0.32-1.09-0.53-1.77-0.59c-0.45-0.04-0.92,0-1.39,0.07  c-0.29-0.48-0.55-0.95-0.79-1.38c-0.33-0.6-0.62-1.12-0.92-1.56C76.61,426.88,76.86,426.46,77.18,425.91z M78.47,436.54  c-1.43-0.1-1.98-1.25-2.03-2.3c-0.03-0.64,0.78-1.19,1.55-1.42c0.36-0.11,0.74-0.17,1.09-0.17c0.1,0,0.2,0,0.3,0.01  c1.15,0.11,1.77,0.89,1.83,2.32c0.01,0.17-0.1,0.37-0.31,0.57C80.23,436.21,78.91,436.58,78.47,436.54z M69.75,433.75l-0.12-0.17  c0-0.06,0.04-0.37,0.58-0.87l0.45-0.41c1.58-1.44,1.86-1.69,1.79-2.7l-0.01-0.15c-0.01-0.16,0.3-0.62,0.91-0.94  c0.48-0.24,0.89-0.26,1.03-0.14c0.36,0.29,0.8,1.09,1.26,1.94c0.19,0.34,0.39,0.71,0.61,1.09c-1.17,0.69-1.86,1.75-1.81,2.92  c0.02,0.35,0.07,0.68,0.15,1c-0.19,0.12-0.37,0.23-0.55,0.33c-0.43-0.02-0.82-0.07-1.16-0.17  C70.84,434.89,70.36,434.39,69.75,433.75z M77.92,443.67c-0.06,0-0.37-0.04-0.87-0.58l-0.41-0.45c-1.44-1.57-1.7-1.86-2.71-1.77  l-0.15,0.01c-0.17-0.01-0.62-0.3-0.94-0.91c-0.25-0.48-0.26-0.89-0.15-1.03c0.3-0.38,1.02-0.79,1.86-1.28  c0.29-0.17,0.6-0.35,0.93-0.54c0.52,0.62,1.22,1.08,2.04,1.29c-0.03,0.5-0.07,0.99-0.11,1.43c-0.11,1.19-0.2,2.14,0.03,2.95  c0.09,0.33,0.27,0.62,0.49,0.87L77.92,443.67z M85.16,441.09l-0.59,0.08c-2.09,0.27-2.47,0.31-2.98,1.17l-0.08,0.12  c-0.08,0.13-0.59,0.32-1.25,0.23c-0.52-0.07-0.85-0.29-0.9-0.46c-0.13-0.45-0.05-1.27,0.04-2.21c0.05-0.49,0.09-1.04,0.12-1.61  c0.86-0.2,1.82-0.63,2.53-1.22c0.57,0.23,1.12,0.47,1.61,0.69c0.65,0.29,1.22,0.54,1.75,0.72c0.49,0.8,0.58,1.3,0.68,1.94l0.01,0.19  C86.02,440.85,85.71,441.02,85.16,441.09z M87.12,429.82c0.03,0.05,0.2,0.31,0.09,1.04l-0.09,0.6c-0.32,2.11-0.38,2.49,0.32,3.23  l0.1,0.11c0.11,0.12,0.16,0.67-0.12,1.31c-0.22,0.49-0.53,0.76-0.71,0.76c0,0,0,0,0,0c-0.43,0-1.34-0.41-2.21-0.8  c-0.41-0.18-0.86-0.38-1.33-0.58c0.04-0.19,0.06-0.39,0.05-0.59c-0.04-0.82-0.22-1.53-0.53-2.13c0.27-0.29,0.54-0.57,0.79-0.82  c0.78-0.79,1.39-1.43,1.74-2.14c0.69-0.14,1.14-0.1,1.7-0.03L87.12,429.82z M73.38,383.68l0.24,0.03c0.17,0.02,0.31,0.1,0.42,0.25  c0.29,0.38,0.38,1.1,0.24,1.98l-0.14,0.92c-0.49,3.21-0.54,3.54,0.34,4.47l0.16,0.17c0.33,0.37,0.4,1.45-0.09,2.55  c-0.4,0.89-1.01,1.47-1.56,1.47c0,0,0,0,0,0c-0.77,0-2.14-0.62-3.58-1.27c-0.74-0.34-1.58-0.7-2.45-1.05  c0.13-0.38,0.21-0.78,0.19-1.18c-0.06-1.31-0.37-2.44-0.91-3.36c0.51-0.55,1.01-1.07,1.46-1.53c1.24-1.26,2.22-2.26,2.69-3.36  c0,0,0-0.01,0-0.01C71.68,383.47,72.44,383.57,73.38,383.68z M60.4,395.05c-2.52-0.17-3.5-2.27-3.58-4.01  c-0.05-1.27,1.33-2.26,2.73-2.69c0.6-0.18,1.22-0.28,1.81-0.28c0.17,0,0.35,0.01,0.52,0.02c2.57,0.25,3.19,2.33,3.26,4.03  c0.02,0.42-0.19,0.84-0.63,1.27C63.37,394.52,61.2,395.13,60.4,395.05z M58.15,377.86c0.08-0.14,0.21-0.23,0.38-0.27  c0.45-0.11,1.13,0.09,1.87,0.55l0.77,0.48c2.72,1.69,3,1.87,4.19,1.43l0.22-0.08c0.46-0.16,1.45,0.21,2.25,1.07  c0.65,0.7,0.93,1.47,0.72,1.97c-0.32,0.75-1.23,1.67-2.28,2.74c-0.42,0.43-0.89,0.91-1.36,1.43c-0.77-0.59-1.73-0.95-2.83-1.06  c-0.76-0.07-1.55-0.03-2.34,0.14c-0.51-0.84-0.98-1.66-1.38-2.4c-0.53-0.97-1-1.8-1.48-2.49c0.2-1.65,0.63-2.38,1.16-3.29  L58.15,377.86z M46.78,390.65l-0.16-0.17c-0.12-0.12-0.17-0.27-0.17-0.46c0.02-0.47,0.4-1.09,1.06-1.69l0.69-0.63  c2.4-2.18,2.65-2.41,2.55-3.69l-0.02-0.24c-0.03-0.5,0.61-1.38,1.68-1.92c0.87-0.44,1.71-0.5,2.14-0.15  c0.63,0.51,1.29,1.71,2.05,3.1c0.36,0.65,0.76,1.37,1.2,2.11c-1.9,0.93-3.05,2.5-2.97,4.22c0.03,0.63,0.15,1.22,0.32,1.78  c-0.46,0.29-0.9,0.55-1.33,0.8c-0.76-0.03-1.45-0.11-2.04-0.29C48.54,392.48,47.76,391.67,46.78,390.65z M60.23,405.59l-0.17,0.16  c-0.12,0.12-0.27,0.18-0.46,0.17c-0.47-0.01-1.09-0.4-1.69-1.05l-0.63-0.68c-2.2-2.39-2.43-2.64-3.7-2.53l-0.24,0.02  c-0.01,0-0.02,0-0.03,0c-0.5,0-1.36-0.63-1.9-1.67c-0.45-0.87-0.51-1.71-0.17-2.14c0.52-0.65,1.66-1.31,2.98-2.07  c0.55-0.32,1.17-0.68,1.8-1.07c0.83,1.16,2.05,1.94,3.52,2.22c-0.04,0.95-0.12,1.86-0.19,2.66c-0.17,1.76-0.3,3.16,0.03,4.31  c0.17,0.59,0.53,1.09,1.02,1.5C60.35,405.47,60.3,405.52,60.23,405.59z M72.5,401.23c-0.28,0.37-0.93,0.64-1.8,0.75l-0.9,0.12  c-3.17,0.4-3.5,0.44-4.15,1.54l-0.12,0.2c-0.26,0.41-1.26,0.76-2.42,0.59c-0.94-0.13-1.65-0.55-1.8-1.07  c-0.23-0.78-0.1-2.07,0.04-3.57c0.08-0.85,0.16-1.82,0.2-2.84c1.42-0.26,3.15-0.99,4.27-2.03c0.98,0.38,1.93,0.8,2.77,1.18  c1.06,0.48,1.98,0.89,2.81,1.15c0.89,1.42,1.03,2.26,1.19,3.3l0.04,0.23C72.65,400.93,72.61,401.08,72.5,401.23z M99,462.23  c-6.7-1.11-13.61-2.25-23.93,2.23c1.14-7.72,5.72-13.83,13.04-17.32c4.52-2.15,9.78-3.2,15.4-3.2c8.77,0,18.37,2.55,27.29,7.39  c-11.44-2.5-23.17-2.5-36.17,0.75c-0.54,0.13-0.86,0.68-0.73,1.21c0.13,0.54,0.68,0.86,1.21,0.73c14.35-3.59,27.14-3.11,39.75,0.39  C116.93,465.19,107.82,463.69,99,462.23z M98.17,264.81l0.08,0.12c0.09,0.13,0.07,0.69-0.29,1.27c-0.28,0.46-0.62,0.68-0.81,0.66  c-0.42-0.06-1.27-0.58-2.08-1.09c-0.38-0.24-0.8-0.49-1.24-0.75c0.06-0.18,0.11-0.38,0.13-0.57c0.07-0.81-0.02-1.54-0.24-2.18  c0.31-0.25,0.61-0.49,0.89-0.71c0.88-0.68,1.57-1.23,2.01-1.89c0.7-0.05,1.13,0.05,1.68,0.2l0.19,0.08  c0.03,0.05,0.16,0.33-0.05,1.04l-0.17,0.58C97.69,263.62,97.58,263.99,98.17,264.81z M96.07,270.42l-0.02,0.19  c-0.11,0.11-0.43,0.21-0.98,0.23l-0.6,0c-2.1-0.01-2.48-0.02-3.1,0.77l-0.09,0.11c-0.1,0.11-0.63,0.24-1.27,0.06  c-0.5-0.14-0.8-0.4-0.82-0.57c-0.07-0.46,0.12-1.26,0.33-2.18c0.11-0.48,0.23-1.02,0.34-1.59c0.88-0.08,1.87-0.38,2.65-0.87  c0.54,0.3,1.06,0.61,1.52,0.9c0.6,0.38,1.13,0.7,1.63,0.95C96.03,269.27,96.06,269.78,96.07,270.42z M87.35,262.91  c0.06-0.64,0.93-1.07,1.72-1.2c0.21-0.03,0.42-0.05,0.62-0.05c0.27,0,0.53,0.03,0.77,0.08c1.13,0.26,1.63,1.11,1.5,2.53c0,0,0,0,0,0  c-0.02,0.17-0.14,0.35-0.38,0.52c-0.76,0.57-2.1,0.75-2.54,0.66C87.65,265.17,87.26,263.95,87.35,262.91z M95.02,258.5  c-0.24,0.4-0.89,0.91-1.63,1.49c-0.25,0.2-0.52,0.41-0.79,0.63c-0.46-0.38-1.01-0.67-1.67-0.82c-0.44-0.1-0.91-0.13-1.38-0.11  c-0.22-0.51-0.42-1.02-0.6-1.47c-0.24-0.63-0.46-1.19-0.7-1.67c0.25-0.89,0.54-1.27,0.94-1.77l0.13-0.13  c0.15-0.01,0.48,0.09,0.91,0.44l0.46,0.38c1.62,1.34,1.91,1.58,2.89,1.36l0.14-0.03c0.16-0.04,0.64,0.21,1.02,0.75  C95.04,257.96,95.11,258.35,95.02,258.5z M80.79,261.54l-0.1-0.18c0.01-0.06,0.09-0.36,0.69-0.78l0.5-0.35  c1.75-1.21,2.07-1.43,2.13-2.44l0.01-0.15c0.01-0.16,0.38-0.58,1.03-0.8c0.51-0.18,0.91-0.13,1.04,0c0.32,0.34,0.64,1.18,0.99,2.08  c0.14,0.36,0.29,0.75,0.46,1.16c-1.25,0.53-2.08,1.49-2.18,2.64c-0.03,0.35-0.02,0.68,0.01,1.01c-0.2,0.09-0.4,0.17-0.59,0.25  c-0.42-0.08-0.8-0.18-1.13-0.32C81.73,262.81,81.31,262.25,80.79,261.54z M86.79,271.75l-0.35-0.5c-1.22-1.75-1.44-2.06-2.45-2.11  l-0.15-0.01c-0.15-0.01-0.58-0.38-0.81-1.02c-0.18-0.51-0.14-0.91-0.01-1.04c0.35-0.33,1.12-0.65,2.01-1.01  c0.07-0.03,0.14-0.06,0.21-0.09c0,0,0.01,0,0.01,0c0.25-0.1,0.5-0.21,0.77-0.32c0.44,0.68,1.06,1.22,1.85,1.54  c-0.1,0.49-0.2,0.97-0.3,1.4c-0.27,1.17-0.48,2.09-0.36,2.93c0.05,0.34,0.18,0.65,0.37,0.93l-0.01,0.01  C87.51,272.42,87.21,272.35,86.79,271.75z M413.94,247.19l-0.08-0.12c-0.09-0.13-0.07-0.69,0.29-1.27c0.28-0.46,0.63-0.68,0.81-0.66  c0.42,0.06,1.26,0.58,2.08,1.08c0.38,0.24,0.8,0.49,1.24,0.75c-0.06,0.19-0.11,0.38-0.13,0.57v0c-0.07,0.81,0.02,1.54,0.24,2.18  c-0.31,0.25-0.61,0.49-0.89,0.71c-0.88,0.68-1.57,1.23-2.01,1.89c-0.7,0.05-1.13-0.05-1.68-0.19l-0.19-0.08  c-0.03-0.05-0.16-0.33,0.05-1.04l0.17-0.58C414.42,248.38,414.53,248.01,413.94,247.19z M416.04,241.58l0.02-0.19  c0.11-0.11,0.42-0.23,0.96-0.23c0.01,0,0.01,0,0.02,0l0.6,0c2.1,0.01,2.48,0.02,3.09-0.77l0.09-0.11c0.1-0.12,0.63-0.24,1.26-0.06  c0.5,0.14,0.8,0.4,0.83,0.57c0.07,0.46-0.12,1.26-0.33,2.18c-0.11,0.48-0.23,1.01-0.33,1.58c-0.88,0.09-1.89,0.38-2.67,0.87  c-0.53-0.3-1.05-0.61-1.51-0.9c-0.6-0.37-1.13-0.7-1.63-0.95C416.08,242.73,416.05,242.22,416.04,241.58z M424.76,249.09  c-0.06,0.64-0.93,1.07-1.72,1.2c-0.47,0.08-0.97,0.07-1.4-0.03c-1.13-0.26-1.63-1.12-1.5-2.53c0,0,0,0,0,0  c0.02-0.17,0.14-0.35,0.38-0.52c0.64-0.47,1.68-0.68,2.27-0.68c0.11,0,0.21,0.01,0.28,0.02  C424.46,246.83,424.85,248.05,424.76,249.09z M417.09,253.5c0.24-0.4,0.89-0.91,1.63-1.49c0.25-0.2,0.52-0.41,0.79-0.63  c0.46,0.38,1.01,0.67,1.67,0.82c0.39,0.09,0.81,0.14,1.23,0.14c0.05,0,0.11-0.01,0.16-0.01c0.22,0.51,0.42,1.01,0.59,1.46  c0.24,0.63,0.46,1.19,0.7,1.67c-0.25,0.89-0.55,1.27-0.94,1.77l-0.13,0.13c-0.16,0.01-0.48-0.09-0.91-0.44l-0.46-0.38  c-1.62-1.34-1.91-1.58-2.89-1.36l-0.14,0.03c-0.14,0.04-0.64-0.21-1.02-0.75C417.07,254.04,417,253.65,417.09,253.5z M431.32,250.46  l0.1,0.18c-0.01,0.06-0.09,0.36-0.69,0.78l-0.5,0.34c-1.76,1.21-2.07,1.43-2.13,2.44l-0.01,0.15c-0.01,0.16-0.38,0.58-1.03,0.8  c-0.51,0.18-0.91,0.13-1.04,0c-0.32-0.33-0.64-1.18-0.99-2.08c-0.14-0.36-0.29-0.75-0.46-1.16c1.25-0.53,2.08-1.49,2.18-2.64  c0.03-0.35,0.02-0.68-0.01-1.01c0.2-0.09,0.4-0.17,0.59-0.25c0.42,0.08,0.8,0.18,1.13,0.32  C430.39,249.19,430.8,249.75,431.32,250.46z M425.33,240.25l0.35,0.5c1.22,1.75,1.44,2.06,2.45,2.12l0.15,0.01  c0.15,0.01,0.58,0.38,0.81,1.02c0.18,0.51,0.14,0.91,0.01,1.04c-0.35,0.33-1.12,0.65-2.01,1.01c-0.31,0.13-0.64,0.27-0.99,0.42  c-0.44-0.68-1.06-1.22-1.85-1.54c0.1-0.49,0.2-0.97,0.3-1.4c0.27-1.17,0.48-2.09,0.36-2.93c-0.05-0.34-0.18-0.65-0.37-0.93  l0.01-0.01C424.6,239.58,424.9,239.65,425.33,240.25z M422.71,195.64c-0.05,0.08-0.1,0.16-0.13,0.25c-0.68,2.29-1.43,4.46-2.24,6.52  c-13.97,5.14-16.98,10.42-19.89,15.54c-2.13,3.75-4.15,7.29-10.91,10.59c-0.33,0.16-0.55,0.5-0.56,0.87  c-0.01,0.37,0.18,0.72,0.51,0.9c2.76,1.56,5.7,2.35,8.67,2.35c3.05,0,6.14-0.82,9.11-2.47c8.55-4.72,14.42-15.32,14.95-26.99  c0-0.02,0-0.04,0-0.06c0.31-0.81,0.61-1.6,0.89-2.4c0.03,0.46,0.08,0.92,0.11,1.38c0.76,12.06,0.54,24.22-0.66,36.16  c-1.02-0.27-2.46-0.24-3.26,0.73l-0.12,0.14c-0.25,0.02-0.82,0.02-1.52,0.01l-0.61,0c-0.01,0-0.02,0-0.03,0  c-1.3,0-2.02,0.45-2.39,0.83c-0.4,0.4-0.61,0.93-0.6,1.48l0,0.15c0.01,0.49,0.02,1,0.18,1.64c-0.68,0.21-1.31,0.73-1.78,1.5  c-0.57,0.92-0.97,2.38-0.24,3.45l0.11,0.16c-0.05,0.25-0.21,0.82-0.41,1.5l-0.17,0.58c-0.37,1.28-0.13,2.11,0.14,2.59  c0.28,0.5,0.74,0.85,1.28,0.99l0.15,0.04c0.53,0.14,1.07,0.28,1.84,0.28c0.1,0.42,0.3,0.86,0.6,1.27c0.62,0.87,1.78,1.8,3.04,1.56  l0.18-0.04c0.21,0.14,0.65,0.51,1.19,0.95l0.47,0.38c0.87,0.72,1.62,0.9,2.15,0.9c0.09,0,0.17-0.01,0.25-0.01c0.01,0,0.01,0,0.02,0  c-0.59,64.89-18.12,125.76-49.46,171.51c-25,36.5-56.46,59.98-90.54,68.11c-41.4-0.03-83.98-19.2-120.52-55.09  c-0.39-0.39-1.03-0.38-1.41,0.01c-0.39,0.39-0.38,1.03,0.01,1.42c34.37,33.76,74.09,52.89,113.24,55.39  c-6.05,0.97-12.18,1.48-18.35,1.48c-23.82,0-46.83-7.24-68.39-21.52c-12.03-7.97-23.28-17.15-33.55-27.31  c0.01-0.13,0-0.27-0.05-0.41c-1.17-3.39-1.99-6.69-2.49-9.85c8.61-9.73,8.72-15.06,8.81-20.21c0.07-3.73,0.13-7.26,3.9-12.54  c0.22-0.3,0.25-0.71,0.08-1.04c-0.17-0.34-0.53-0.56-0.91-0.54c-6.59,0-12.21,3.22-15.42,8.83c-4.06,7.11-3.54,16.72,1.36,25.1  c-0.1,0.33-0.01,0.7,0.24,0.96c0.35,2.18,0.86,4.42,1.52,6.7c-4.23-4.34-8.28-8.86-12.14-13.52c0-0.13-0.02-0.26-0.07-0.39  c-4.45-10.94-7.44-21.1-9.32-30.45c0.01-0.02,0.02-0.04,0.03-0.06c0.42-1.38,0.9-2.83,1.46-4.31c12.65-4.87,15.33-9.73,17.92-14.43  c1.89-3.43,3.67-6.67,9.75-9.74c0.33-0.17,0.54-0.5,0.55-0.88c0.01-0.37-0.19-0.72-0.52-0.89c-5.16-2.83-10.94-2.7-16.27,0.34  c-7.74,4.43-12.96,14.17-13.29,24.83c0,0.02,0,0.03,0,0.05c-0.13,0.35-0.26,0.69-0.38,1.04c-1.61-9.36-2.1-17.84-1.88-25.42  c0-0.02,0.02-0.03,0.02-0.05c3.59-17.41,14.42-24.57,16.58-25.84c7.34,3.03,12.44,4.01,16.43,4.01c3.6,0,6.31-0.79,8.97-1.57  c4.12-1.2,8.01-2.34,15.31-0.13c0.36,0.11,0.75,0.01,1.01-0.27c0.26-0.27,0.35-0.67,0.22-1.02c-2.11-6.02-6.95-10.22-13.62-11.83  c-9.35-2.25-20.5,1.1-28.6,8.54c-0.2,0.09-0.4,0.17-0.59,0.26c-0.22,0.1-0.37,0.27-0.47,0.47c-2.49,1.51-9.98,6.8-14.62,18.33  c1.84-16.34,6.91-27.35,9.81-32.52c0.61,0.18,1.24,0.22,1.84,0.03l0.27-0.09c0.09-0.03,0.16-0.06,0.17-0.07  c0.23,0.05,1.09,0.61,2.29,1.4l0.78,0.51c1.13,0.74,2.06,0.95,2.75,0.95c0.26,0,0.49-0.03,0.68-0.07c0.71-0.16,1.3-0.58,1.67-1.19  l0.12-0.2c0.17-0.27,0.33-0.56,0.5-0.86c0.17,0,0.34-0.01,0.51-0.03c1.58-0.17,3.4-1.03,3.89-2.54l0.08-0.27  c0.03-0.09,0.04-0.16,0.04-0.17c0.17-0.15,1.11-0.53,2.42-1.04l0.86-0.34c1.7-0.67,2.39-1.6,2.67-2.26c0.28-0.67,0.28-1.39,0-2.03  l-0.09-0.21c-0.33-0.78-0.68-1.58-1.47-2.54c0.97-0.55,1.66-1.66,1.91-3.11c0.27-1.59-0.06-3.6-1.4-4.49l-0.24-0.16  c-0.08-0.05-0.15-0.09-0.17-0.09c-0.1-0.21-0.21-1.24-0.35-2.67l-0.09-0.93c-0.18-1.85-0.9-2.77-1.47-3.23  c-0.57-0.45-1.27-0.65-1.97-0.56l-0.23,0.03c-0.89,0.11-1.81,0.23-3.04,0.79c-0.36-0.63-0.92-1.21-1.66-1.69  c-1.34-0.86-3.28-1.35-4.62-0.48l-0.24,0.16c-0.07,0.05-0.13,0.1-0.14,0.11c-0.24-0.03-1.2-0.29-2.54-0.72l-0.87-0.28  c-1.75-0.55-2.87-0.26-3.5,0.08c-0.63,0.34-1.09,0.9-1.28,1.57l-0.06,0.22c-0.23,0.81-0.47,1.66-0.47,2.89  c-1.1-0.18-2.34,0.24-3.44,1.21c-1.21,1.06-2.22,2.83-1.75,4.37l0.09,0.27c0.03,0.09,0.06,0.16,0.07,0.18  c-0.05,0.23-0.62,1.09-1.41,2.28l-0.52,0.78c-1.02,1.55-1.05,2.72-0.89,3.43c0.16,0.71,0.57,1.31,1.18,1.68l0.2,0.12  c1.34,0.83,2.6,1.62,6.44,1.76c-0.48,0.54-0.85,1.06-1.1,1.61c-0.57,1.26-0.19,2.83,1.01,4.18c0.23,0.26,0.5,0.5,0.78,0.73  c-2.7,4.82-7.21,14.56-9.43,28.8c-1.14-8.89-3.42-17.42-9.48-28.53c-0.07-0.13-0.17-0.24-0.29-0.32l0.03-0.11  c0.23-0.11,0.75-0.32,1.4-0.58l0.56-0.22c1.22-0.48,1.72-1.17,1.93-1.67c0.22-0.52,0.22-1.09,0-1.59l-0.06-0.13  c-0.19-0.45-0.39-0.91-0.77-1.44c0.55-0.45,0.94-1.16,1.09-2.04c0.18-1.06,0.01-2.56-1.06-3.28l-0.16-0.1  c-0.05-0.25-0.11-0.83-0.18-1.54l-0.06-0.6c-0.13-1.33-0.67-2-1.09-2.34c-0.45-0.35-1-0.51-1.54-0.44l-0.15,0.02  c-0.54,0.07-1.1,0.14-1.8,0.42c-0.25-0.35-0.6-0.68-1.03-0.96c-0.89-0.58-2.32-1.01-3.39-0.31l-0.15,0.1  c-0.25-0.05-0.79-0.23-1.45-0.43l-0.57-0.18c-1.25-0.39-2.08-0.18-2.55,0.08c-0.5,0.27-0.85,0.71-1,1.24l-0.04,0.14  c-0.14,0.47-0.27,0.96-0.31,1.61c-0.71,0-1.46,0.31-2.13,0.9c-0.81,0.71-1.62,1.98-1.24,3.21l0.06,0.18  c-0.12,0.22-0.44,0.71-0.83,1.3l-0.33,0.51c-0.73,1.11-0.75,1.97-0.63,2.5c0.12,0.55,0.45,1.02,0.92,1.32l0.13,0.08  c0.79,0.49,1.61,0.99,3.69,1.16c-0.14,0.2-0.26,0.39-0.35,0.6c-0.43,0.95-0.16,2.11,0.72,3.1c0.72,0.81,1.98,1.61,3.22,1.22  l0.18-0.06c0.23,0.12,0.72,0.44,1.31,0.83l0.5,0.33c0.8,0.52,1.47,0.68,1.98,0.68c0.2,0,0.37-0.02,0.52-0.06  c0.56-0.13,1.02-0.46,1.31-0.93l0.08-0.13c0.08-0.13,0.16-0.27,0.24-0.41c0.05,0,0.1,0,0.16-0.01c0.48-0.05,1.02-0.2,1.5-0.45  c5.18,9.54,7.49,17.14,8.72,24.79c-0.21-0.28-0.42-0.56-0.64-0.84c0,0,0,0,0-0.01c-2.87-7.37-8.72-12.93-14.56-13.82  c-3.45-0.53-6.54,0.64-8.68,3.31c-0.22,0.27-0.28,0.64-0.16,0.97s0.4,0.57,0.75,0.64c4.04,0.78,5.69,2.42,7.59,4.31  c2.46,2.44,5.25,5.19,13.53,5.91c0.8,1.04,1.59,2.14,2.37,3.32c0.09,0.14,0.22,0.25,0.35,0.32c0.31,2.69,0.54,5.43,0.74,8.31  c0,0.02,0.01,0.03,0.01,0.05c-0.99,15.71,1.02,35.56,9.82,59.18c-5.83-7.47-11.19-15.3-15.99-23.43  c-16.71-28.3-26.67-59.23-29.67-92.02c0.05-0.08,0.1-0.17,0.13-0.27c0.68-2.29,1.43-4.46,2.24-6.52  c13.97-5.14,16.98-10.42,19.89-15.54c2.13-3.75,4.15-7.29,10.91-10.59c0.33-0.16,0.55-0.5,0.56-0.87s-0.18-0.72-0.51-0.9  c-5.6-3.17-11.91-3.13-17.78,0.12c-8.55,4.72-14.42,15.32-14.95,26.99c0,0.02,0,0.04,0,0.06c-0.31,0.8-0.61,1.6-0.89,2.4  c-0.03-0.46-0.08-0.92-0.11-1.38c-0.76-12.02-0.54-24.15,0.64-36.04c0.01-0.05-0.01-0.1-0.02-0.15c0.02,0.01,0.04,0.01,0.06,0.02  c0.36,0.1,0.77,0.17,1.19,0.17c0.79,0,1.62-0.23,2.15-0.87l0.12-0.14c0.25-0.02,0.82-0.02,1.52-0.01l0.61,0  c1.33,0.05,2.05-0.45,2.42-0.83c0.4-0.4,0.61-0.93,0.59-1.48l0-0.15c-0.01-0.49-0.02-1-0.18-1.63c0.68-0.21,1.31-0.73,1.78-1.5  c0.57-0.92,0.97-2.38,0.24-3.45l-0.11-0.16c0.05-0.25,0.21-0.82,0.41-1.5l0.17-0.58c0.37-1.28,0.13-2.12-0.14-2.59  c-0.28-0.5-0.73-0.85-1.28-0.99l-0.15-0.04c-0.53-0.14-1.07-0.28-1.84-0.28c-0.1-0.43-0.3-0.86-0.6-1.28  c-0.62-0.87-1.78-1.81-3.04-1.56l-0.18,0.04c-0.21-0.14-0.65-0.51-1.19-0.95l-0.46-0.38c-1.02-0.84-1.87-0.94-2.4-0.88  c-0.04,0-0.09,0.02-0.13,0.03c0.58-64.88,18.1-125.72,49.42-171.48c25.01-36.54,56.49-60.03,90.58-68.17  c41.57-0.14,84.38,19.04,121.08,55.09c0.39,0.38,1.03,0.38,1.42-0.01c0.39-0.39,0.38-1.03-0.01-1.42  C316.97,32.8,277.1,13.66,237.82,11.26c6-0.95,12.06-1.45,18.18-1.45c23.82,0,46.83,7.24,68.39,21.52c0,0,0,0,0.01,0  c12.03,7.97,23.28,17.15,33.55,27.31c-0.01,0.13,0,0.27,0.05,0.41c1.17,3.39,1.99,6.69,2.49,9.85c-8.61,9.73-8.72,15.06-8.81,20.21  c-0.07,3.73-0.13,7.26-3.9,12.54c-0.22,0.3-0.25,0.71-0.08,1.04c0.17,0.34,0.53,0.54,0.91,0.54c6.59,0,12.21-3.22,15.42-8.83  c4.06-7.11,3.54-16.72-1.36-25.1c0.1-0.33,0.01-0.7-0.24-0.96c-0.35-2.18-0.86-4.42-1.52-6.7c4.23,4.34,8.28,8.86,12.14,13.52  c0,0.13,0.02,0.26,0.07,0.39c4.45,10.95,7.44,21.11,9.32,30.45c-0.01,0.02-0.02,0.03-0.03,0.06c-0.42,1.38-0.9,2.83-1.46,4.31  c-12.65,4.87-15.33,9.73-17.92,14.43c-1.89,3.43-3.67,6.67-9.75,9.74c-0.33,0.17-0.54,0.5-0.55,0.88c-0.01,0.37,0.19,0.72,0.52,0.89  c2.48,1.36,5.1,2.03,7.74,2.03c2.86,0,5.75-0.79,8.52-2.38c7.74-4.43,12.96-14.17,13.29-24.83c0-0.02,0-0.03,0-0.04  c0.13-0.35,0.26-0.69,0.38-1.04c1.61,9.36,2.1,17.85,1.88,25.43c0,0.02-0.02,0.03-0.02,0.04c-3.59,17.41-14.42,24.57-16.58,25.84  c-13.97-5.76-19.79-4.08-25.4-2.44c-4.12,1.2-8.01,2.34-15.31,0.13c-0.36-0.11-0.75-0.01-1.01,0.27c-0.26,0.27-0.35,0.67-0.22,1.02  c2.11,6.02,6.95,10.22,13.62,11.83c1.93,0.47,3.95,0.69,5.99,0.69c7.85,0,16.2-3.34,22.63-9.25c0.19-0.08,0.38-0.16,0.58-0.24  c0.22-0.1,0.37-0.27,0.47-0.47c2.49-1.51,9.98-6.8,14.62-18.33c-1.84,16.31-6.89,27.31-9.79,32.5c-0.58-0.16-1.18-0.19-1.75-0.01  l-0.27,0.09c-0.09,0.03-0.16,0.06-0.17,0.07c-0.23-0.05-1.09-0.61-2.29-1.39l-0.79-0.51c-1.56-1.01-2.73-1.03-3.43-0.88  c-0.71,0.16-1.3,0.58-1.67,1.19l-0.12,0.2c-0.17,0.27-0.33,0.56-0.5,0.86c-0.17,0-0.34,0.01-0.51,0.03  c-1.58,0.17-3.4,1.03-3.89,2.54l-0.08,0.27c-0.03,0.09-0.04,0.16-0.04,0.17c-0.17,0.15-1.11,0.53-2.42,1.04l-0.86,0.34  c-1.71,0.67-2.39,1.6-2.67,2.26c-0.28,0.67-0.28,1.39,0,2.03l0.09,0.21c0.33,0.78,0.68,1.58,1.47,2.54  c-0.97,0.55-1.66,1.66-1.91,3.11c-0.27,1.59,0.06,3.6,1.4,4.49l0.24,0.16c0.08,0.05,0.15,0.09,0.17,0.09  c0.1,0.21,0.21,1.24,0.35,2.66l0.09,0.93c0.19,1.85,0.9,2.77,1.47,3.23c0.48,0.38,1.05,0.58,1.64,0.58c0.11,0,0.22-0.01,0.33-0.02  l0.23-0.03c0.89-0.11,1.81-0.23,3.04-0.79c0.36,0.63,0.92,1.21,1.66,1.69c1.34,0.86,3.28,1.35,4.62,0.48l0.24-0.16  c0.07-0.05,0.13-0.1,0.14-0.11c0.22,0.01,1.2,0.29,2.54,0.72l0.87,0.28c0.71,0.22,1.31,0.31,1.82,0.31c0.75,0,1.3-0.18,1.67-0.39  c0.63-0.34,1.09-0.9,1.28-1.57l0.06-0.22c0.24-0.82,0.47-1.66,0.47-2.9c0.16,0.03,0.33,0.05,0.5,0.05c0.97,0,2-0.43,2.94-1.26  c1.21-1.06,2.22-2.83,1.74-4.37l-0.09-0.27c-0.03-0.09-0.06-0.16-0.07-0.18c0.05-0.23,0.62-1.09,1.41-2.28l0.52-0.78  c1.02-1.55,1.05-2.72,0.89-3.43c-0.16-0.71-0.57-1.31-1.18-1.68l-0.2-0.12c-1.34-0.83-2.6-1.62-6.44-1.76  c0.48-0.54,0.85-1.06,1.1-1.61c0.57-1.26,0.19-2.83-1.01-4.18c-0.25-0.28-0.54-0.55-0.86-0.79c2.7-4.84,7.19-14.56,9.39-28.74  c1.14,8.89,3.42,17.42,9.48,28.53c0.09,0.17,0.23,0.3,0.38,0.39l-0.01,0.04c-0.23,0.11-0.75,0.32-1.4,0.58l-0.56,0.22  c-1.22,0.48-1.72,1.17-1.93,1.67c-0.22,0.52-0.22,1.09,0,1.59l0.06,0.14c0.19,0.45,0.39,0.91,0.77,1.44  c-0.55,0.45-0.94,1.16-1.09,2.04c-0.18,1.06-0.01,2.56,1.06,3.28l0.16,0.1c0.05,0.25,0.11,0.83,0.18,1.53l0.06,0.61  c0.13,1.33,0.67,2,1.09,2.34c0.38,0.3,0.82,0.46,1.28,0.46c0.09,0,0.17-0.01,0.26-0.02l0.15-0.02c0.54-0.07,1.1-0.14,1.8-0.42  c0.25,0.35,0.6,0.68,1.02,0.96c0.89,0.58,2.32,1.01,3.39,0.31l0.15-0.1c0.25,0.05,0.79,0.23,1.45,0.44l0.57,0.18  c0.5,0.16,0.93,0.22,1.29,0.22c0.56,0,0.97-0.14,1.25-0.29c0.5-0.27,0.85-0.71,1-1.24l0.04-0.14c0.13-0.47,0.27-0.95,0.31-1.6  c0.71,0,1.46-0.31,2.13-0.9c0.81-0.71,1.62-1.98,1.24-3.21l-0.06-0.18c0.12-0.22,0.44-0.71,0.83-1.3l0.34-0.51  c0.73-1.11,0.75-1.97,0.63-2.5c-0.12-0.56-0.45-1.02-0.92-1.32l-0.13-0.08c-0.79-0.49-1.61-0.99-3.69-1.16  c0.14-0.2,0.26-0.39,0.35-0.6c0.43-0.95,0.16-2.11-0.72-3.1c-0.72-0.81-1.99-1.61-3.22-1.22l-0.18,0.06  c-0.23-0.12-0.72-0.44-1.31-0.83l-0.5-0.33c-1.12-0.73-1.98-0.74-2.5-0.62c-0.56,0.13-1.02,0.46-1.31,0.93l-0.08,0.13  c-0.08,0.13-0.17,0.27-0.25,0.42c-0.05,0-0.1-0.01-0.15,0c-0.51,0.06-1.08,0.22-1.59,0.5c-5.19-9.56-7.51-17.17-8.75-24.83  c0.21,0.28,0.42,0.56,0.64,0.84c0,0,0,0,0,0.01c2.87,7.37,8.72,12.93,14.56,13.82c0.54,0.08,1.08,0.12,1.6,0.12  c2.8,0,5.28-1.19,7.08-3.43c0.22-0.27,0.28-0.64,0.16-0.97c-0.12-0.33-0.41-0.57-0.75-0.64c-4.04-0.78-5.69-2.42-7.59-4.31  c-2.46-2.44-5.25-5.19-13.53-5.91c-0.8-1.04-1.59-2.14-2.37-3.32c-0.09-0.14-0.22-0.24-0.35-0.31c-0.31-2.7-0.54-5.44-0.74-8.32  c0-0.02-0.01-0.03-0.01-0.04c0.99-15.71-1.02-35.56-9.82-59.18c5.83,7.47,11.19,15.29,15.99,23.43  c14.33,24.28,23.69,50.49,27.96,78.15c-0.33,0.41-0.3,1.02,0.1,1.37c0.04,0.04,0.08,0.07,0.12,0.11  C421.83,187.34,422.33,191.48,422.71,195.64z M404.21,224.4c0.18,0.34,0.53,0.53,0.88,0.53c0.16,0,0.32-0.04,0.47-0.12  c6.08-3.23,10.53-9.04,13.78-15.29c-1.91,8.31-6.67,15.39-13.03,18.9c-4.65,2.57-9.59,2.9-14.12,0.98c5.93-3.32,8-6.95,10-10.47  c2.61-4.58,5.31-9.31,17.1-13.99c-3.85,8.74-8.91,15.04-14.67,18.1C404.13,223.31,403.95,223.92,404.21,224.4z M152.82,425.88  c0.21-0.51-0.04-1.09-0.56-1.3c-0.51-0.21-1.1,0.04-1.3,0.56c-1.42,3.55-2.07,7.69-1.97,12.22c-2.51-6.58-2.32-13.47,0.71-18.77  c2.53-4.42,6.75-7.16,11.77-7.71c-3.02,4.9-3.08,8.49-3.15,11.98c-0.08,4.54-0.18,9.24-7.15,17.57  C150.65,434.94,151.18,429.97,152.82,425.88z M145.48,381.28c-0.27-0.48-0.87-0.66-1.36-0.39c-5.34,2.93-9.24,8.08-12.07,13.54  c1.72-7.29,5.87-13.49,11.43-16.67c2.45-1.4,5.01-2.1,7.53-2.1c1.71,0,3.41,0.32,5.05,0.97c-5.25,3.09-7.07,6.39-8.84,9.6  c-2.29,4.16-4.68,8.46-15.14,12.82c2.74-6.47,6.88-13.05,12.99-16.41C145.56,382.38,145.74,381.77,145.48,381.28z M169.76,344.77  c-5.79-1.55-12.6-1.15-19.98,1.14c6.79-4.19,14.74-5.8,21.61-4.15c5.28,1.27,9.27,4.33,11.43,8.71c-6.64-1.61-10.6-0.45-14.45,0.67  c-5.06,1.48-10.31,2.99-22.47-1.73c8.66-3.47,16.87-4.44,23.33-2.71c0.54,0.15,1.08-0.17,1.22-0.71  C170.61,345.46,170.3,344.92,169.76,344.77z M131.77,316.55l-0.07-0.23c-0.15-0.48,0.25-1.48,1.15-2.27  c0.73-0.64,1.53-0.9,2.04-0.68c0.74,0.34,1.67,1.34,2.75,2.5c0.51,0.54,1.08,1.14,1.69,1.75c-1.62,1.37-2.34,3.17-1.84,4.82  c0.18,0.61,0.44,1.15,0.74,1.65c-0.37,0.39-0.73,0.75-1.08,1.1c-0.74,0.16-1.43,0.24-2.05,0.23c-3.37-0.12-4.32-0.71-5.53-1.46  l-0.2-0.13c-0.14-0.09-0.23-0.22-0.28-0.41c-0.1-0.46,0.12-1.15,0.61-1.9l0.52-0.78C131.99,318.04,132.18,317.76,131.77,316.55z   M137.36,309l0.06-0.23c0.04-0.16,0.14-0.27,0.3-0.36c0.41-0.22,1.12-0.19,1.95,0.07l0.87,0.28c3.05,0.97,3.37,1.07,4.41,0.35  l0.19-0.13c0.41-0.26,1.46-0.16,2.44,0.48c0.8,0.52,1.26,1.19,1.18,1.73c-0.12,0.81-0.78,1.92-1.53,3.22  c-0.3,0.52-0.64,1.1-0.97,1.72c-0.9-0.38-1.91-0.5-3.01-0.33c-0.75,0.12-1.51,0.36-2.24,0.71c-0.7-0.69-1.36-1.37-1.93-1.99  c-0.75-0.81-1.41-1.5-2.05-2.05C136.85,310.82,137.07,310,137.36,309z M148.97,315.41c0.89-1.53,1.6-2.74,1.78-3.92c0,0,0,0,0-0.01  c1.17-0.61,1.94-0.71,2.88-0.83l0.23-0.03c0.17-0.02,0.32,0.03,0.47,0.14c0.37,0.29,0.63,0.97,0.72,1.86l0.09,0.92  c0.32,3.23,0.35,3.57,1.43,4.25l0.2,0.13c0.42,0.28,0.74,1.31,0.54,2.49c-0.16,0.96-0.62,1.67-1.15,1.81  c-0.74,0.19-2.22-0.07-3.79-0.35c-0.8-0.14-1.7-0.29-2.63-0.41c0.03-0.4,0.01-0.8-0.1-1.19v0c-0.38-1.26-0.96-2.27-1.71-3.03  C148.29,316.6,148.65,315.97,148.97,315.41z M148.78,333.29c-0.94,0.11-1.73-0.13-2.01-0.6c-0.41-0.7-0.61-1.98-0.84-3.46  c-0.13-0.84-0.29-1.8-0.5-2.8c1.31-0.6,2.8-1.75,3.63-3.03c1.05,0.13,2.07,0.3,2.97,0.46c1.14,0.2,2.14,0.37,3,0.42  c1.22,1.16,1.56,1.94,1.97,2.91l0.09,0.21c0.06,0.15,0.06,0.3-0.01,0.47c-0.18,0.42-0.74,0.85-1.55,1.17l-0.85,0.34  c-2.97,1.17-3.28,1.29-3.64,2.51l-0.07,0.22C150.83,332.58,149.94,333.16,148.78,333.29z M139.4,321.87  c-0.36-1.21,0.73-2.52,1.98-3.28c0.69-0.42,1.45-0.71,2.19-0.82c0.23-0.04,0.46-0.05,0.67-0.05c2.08,0,3.04,1.67,3.49,3.15  c0,0,0,0,0,0c0.12,0.4,0.02,0.87-0.3,1.39c-0.84,1.38-2.8,2.48-3.58,2.62C141.37,325.33,139.9,323.54,139.4,321.87z M135.66,329.85  c0.34-0.76,1.29-1.68,2.38-2.74c0.45-0.44,0.96-0.94,1.47-1.47c1,0.84,2.23,1.31,3.58,1.31c0.13,0,0.26-0.03,0.39-0.04  c0.19,0.93,0.34,1.83,0.47,2.63c0.27,1.75,0.49,3.13,1.09,4.16c0.31,0.53,0.78,0.93,1.36,1.21c-0.04,0.07-0.08,0.14-0.12,0.21  l-0.13,0.21c-0.09,0.14-0.22,0.24-0.41,0.28c-0.46,0.11-1.16-0.12-1.9-0.6l-0.78-0.51c-2.71-1.77-3-1.96-4.21-1.54l-0.23,0.07  c-0.26,0.08-0.67-0.01-1.13-0.24c-0.01-0.01-0.02-0.02-0.03-0.03c-0.01-0.01-0.02-0.01-0.03-0.01c-0.36-0.2-0.75-0.47-1.09-0.86  C135.7,331.15,135.43,330.36,135.66,329.85z M102.65,323.2l-0.05-0.14c-0.05-0.15,0.14-0.67,0.65-1.12c0.4-0.35,0.79-0.46,0.95-0.38  c0.42,0.19,1.03,0.85,1.68,1.55c0.26,0.28,0.54,0.58,0.85,0.89c-0.96,0.95-1.36,2.14-1.03,3.25c0.1,0.33,0.23,0.63,0.39,0.92  c-0.15,0.15-0.3,0.3-0.44,0.45c-0.41,0.08-0.81,0.13-1.16,0.12c-2.1-0.07-2.69-0.44-3.43-0.9l-0.15-0.13  c-0.01-0.06-0.05-0.36,0.35-0.97l0.33-0.5C102.76,324.47,102.98,324.15,102.65,323.2z M106.3,318.49l0.04-0.15  c0.02-0.03,0.32-0.17,1.02,0.05l0.57,0.18c1.99,0.63,2.35,0.75,3.17,0.18l0.12-0.08c0.12-0.08,0.66-0.04,1.21,0.31  c0.43,0.28,0.64,0.61,0.61,0.78c-0.07,0.46-0.48,1.16-0.96,1.98c-0.16,0.27-0.33,0.56-0.5,0.87c-0.56-0.18-1.18-0.24-1.85-0.13  c-0.45,0.07-0.89,0.21-1.32,0.39c-0.39-0.39-0.75-0.77-1.08-1.12c-0.46-0.49-0.86-0.92-1.26-1.28  C106,319.56,106.13,319.1,106.3,318.49z M118.63,325.78c-0.09,0.52-0.32,0.85-0.5,0.9c-0.41,0.11-1.38-0.07-2.32-0.23  c-0.44-0.08-0.92-0.16-1.41-0.23c-0.01-0.19-0.04-0.38-0.1-0.57c-0.23-0.78-0.59-1.41-1.03-1.92c0.19-0.34,0.38-0.68,0.56-0.98  c0.55-0.95,0.99-1.72,1.16-2.49c0.62-0.3,1.06-0.37,1.62-0.44l0.2,0c0.04,0.04,0.27,0.25,0.34,0.97l0.06,0.6  c0.21,2.11,0.25,2.5,1.1,3.03l0.12,0.08C118.55,324.59,118.74,325.12,118.63,325.78z M110.13,328.39c-1.39,0.26-2.21-0.72-2.5-1.72  c-0.18-0.61,0.46-1.33,1.14-1.74c0.41-0.25,0.87-0.42,1.3-0.49c0.13-0.02,0.25-0.03,0.37-0.03c0.93,0,1.59,0.6,1.95,1.8  c0.05,0.16,0,0.37-0.16,0.62C111.74,327.64,110.57,328.31,110.13,328.39z M105.17,332.12c0.2-0.43,0.79-1.01,1.48-1.68  c0.24-0.23,0.49-0.48,0.75-0.74c0.65,0.47,1.43,0.73,2.27,0.74c0.09,0.49,0.17,0.97,0.24,1.39c0.18,1.18,0.33,2.11,0.75,2.84  c0.17,0.29,0.42,0.52,0.69,0.71l-0.01,0.01c-0.06,0.01-0.36,0.05-0.97-0.34l-0.5-0.33c-1.78-1.16-2.1-1.37-3.05-1.05l-0.14,0.05  c-0.15,0.05-0.67-0.14-1.12-0.64C105.21,332.67,105.1,332.28,105.17,332.12z M113.37,333.87c-0.51,0.06-0.88-0.07-0.97-0.22  c-0.23-0.4-0.36-1.2-0.51-2.13c-0.07-0.48-0.17-1.02-0.28-1.58c0.78-0.41,1.6-1.05,2.13-1.79c0.6,0.08,1.19,0.17,1.71,0.27  c0.7,0.12,1.3,0.21,1.85,0.25c0.68,0.67,0.88,1.11,1.13,1.71l0.06,0.14c0,0.04-0.14,0.33-0.83,0.61l-0.55,0.22  c-1.95,0.77-2.3,0.91-2.58,1.86l-0.04,0.14C114.46,333.49,114.02,333.8,113.37,333.87z M109.43,351.13c3.31,0.77,6.89,3.31,10.4,7.3  c-6-0.86-8.1-2.93-10.31-5.12c-1.69-1.68-3.43-3.4-6.86-4.42c1.55-1.25,3.48-1.74,5.65-1.4c3.07,0.47,6.17,2.47,8.73,5.43  c-2.2-1.77-4.6-3.15-7.16-3.74c-0.54-0.12-1.08,0.21-1.2,0.75S108.89,351.01,109.43,351.13z M107.8,287.6  c-0.26-0.49-0.86-0.67-1.35-0.42c-6.08,3.23-10.54,9.04-13.78,15.29c1.91-8.31,6.67-15.38,13.03-18.9c2.66-1.47,5.42-2.21,8.14-2.21  c2.03,0,4.04,0.41,5.98,1.23c-5.93,3.32-8,6.95-10,10.47c-2.61,4.58-5.31,9.31-17.1,13.99c3.85-8.74,8.91-15.04,14.67-18.1  C107.87,288.69,108.05,288.08,107.8,287.6z M359.18,86.12c-0.21,0.51,0.04,1.09,0.56,1.3c0.12,0.05,0.25,0.07,0.37,0.07  c0.4,0,0.77-0.24,0.93-0.63c1.42-3.55,2.07-7.69,1.97-12.22c2.51,6.58,2.32,13.47-0.71,18.77c-2.53,4.42-6.75,7.16-11.77,7.72  c3.02-4.9,3.08-8.49,3.15-11.98c0.08-4.54,0.18-9.24,7.15-17.57C361.35,77.06,360.82,82.03,359.18,86.12z M366.52,130.72  c0.18,0.33,0.52,0.52,0.88,0.52c0.16,0,0.33-0.04,0.48-0.12c5.34-2.93,9.24-8.08,12.07-13.54c-1.72,7.29-5.87,13.49-11.43,16.67  c-4.11,2.35-8.51,2.73-12.58,1.14c5.25-3.09,7.07-6.39,8.84-9.6c2.29-4.16,4.68-8.46,15.14-12.82c-2.74,6.47-6.88,13.05-13,16.41  C366.43,129.62,366.26,130.23,366.52,130.72z M342.24,167.23c2.32,0.62,4.8,0.93,7.42,0.93c3.92,0,8.15-0.71,12.58-2.08  c-6.8,4.2-14.76,5.82-21.64,4.16c-5.28-1.27-9.28-4.33-11.43-8.71c6.63,1.61,10.6,0.45,14.45-0.67c5.06-1.48,10.3-2.99,22.47,1.73  c-8.66,3.47-16.87,4.44-23.33,2.71c-0.53-0.14-1.08,0.17-1.22,0.71S341.7,167.08,342.24,167.23z M380.34,195.45l0.07,0.23  c0.15,0.48-0.25,1.48-1.15,2.27c-0.73,0.64-1.53,0.91-2.04,0.68c-0.74-0.34-1.67-1.34-2.75-2.5c-0.51-0.54-1.08-1.14-1.69-1.75  c1.62-1.37,2.34-3.17,1.84-4.82c-0.18-0.61-0.45-1.15-0.75-1.65c0.38-0.39,0.74-0.76,1.09-1.11c0.74-0.16,1.43-0.24,2.05-0.23  c3.37,0.12,4.32,0.71,5.53,1.46l0.2,0.13c0.14,0.09,0.23,0.22,0.28,0.41c0.1,0.46-0.12,1.15-0.61,1.9l-0.51,0.78  C380.12,193.95,379.93,194.24,380.34,195.45z M374.75,203.01l-0.06,0.22c-0.04,0.16-0.14,0.27-0.3,0.36  c-0.4,0.22-1.11,0.19-1.95-0.07l-0.87-0.28c-3.05-0.97-3.37-1.07-4.41-0.35l-0.19,0.13c-0.41,0.26-1.46,0.16-2.44-0.48  c-0.8-0.52-1.26-1.2-1.18-1.73c0.12-0.8,0.78-1.92,1.53-3.22c0.31-0.52,0.64-1.11,0.98-1.73c0.63,0.26,1.3,0.42,2.04,0.42  c0.31,0,0.64-0.03,0.96-0.08c0.75-0.12,1.51-0.36,2.24-0.71c0.7,0.69,1.36,1.37,1.93,1.99c0.75,0.81,1.41,1.5,2.05,2.05  C375.27,201.18,375.04,202,374.75,203.01z M363.14,196.59c-0.89,1.53-1.6,2.74-1.78,3.92c0,0,0,0,0,0.01  c-1.17,0.61-1.94,0.71-2.88,0.83l-0.23,0.03c-0.17,0.02-0.32-0.03-0.47-0.14c-0.37-0.29-0.63-0.97-0.72-1.86l-0.09-0.93  c-0.32-3.22-0.35-3.56-1.43-4.25l-0.2-0.13c-0.42-0.28-0.74-1.31-0.54-2.49c0.16-0.96,0.62-1.67,1.15-1.81  c0.75-0.19,2.22,0.07,3.79,0.35c0.8,0.14,1.7,0.29,2.63,0.41c-0.03,0.4-0.01,0.8,0.1,1.19c0,0,0,0,0,0  c0.38,1.26,0.97,2.26,1.72,3.02C363.82,195.4,363.46,196.03,363.14,196.59z M363.34,178.71c0.94-0.1,1.73,0.13,2,0.6  c0.41,0.7,0.61,1.98,0.84,3.46c0.13,0.84,0.29,1.8,0.5,2.8c-1.31,0.6-2.8,1.75-3.63,3.03c-1.05-0.13-2.07-0.3-2.97-0.46  c-1.14-0.2-2.13-0.36-3-0.41c-1.23-1.16-1.57-1.95-1.98-2.92l-0.09-0.21c-0.06-0.15-0.06-0.3,0.01-0.47  c0.18-0.43,0.74-0.85,1.56-1.17l0.85-0.34c2.97-1.17,3.28-1.29,3.64-2.51l0.07-0.22C361.29,179.42,362.17,178.84,363.34,178.71z   M372.72,190.13c0.36,1.21-0.73,2.52-1.98,3.28c-0.69,0.42-1.45,0.71-2.19,0.82c-2.56,0.39-3.67-1.47-4.16-3.1  c-0.12-0.4-0.02-0.87,0.3-1.39c0.85-1.38,2.8-2.48,3.58-2.62C370.75,186.68,372.21,188.46,372.72,190.13z M376.45,182.15  c-0.34,0.76-1.29,1.68-2.38,2.74c-0.46,0.45-0.96,0.95-1.48,1.48c-1.09-0.92-2.46-1.38-3.96-1.28c-0.19-0.93-0.34-1.83-0.47-2.63  c-0.27-1.75-0.49-3.13-1.09-4.16c-0.31-0.53-0.78-0.93-1.36-1.2c0.04-0.07,0.08-0.14,0.13-0.22l0.12-0.2  c0.09-0.14,0.22-0.24,0.41-0.28c0.47-0.11,1.16,0.12,1.9,0.6l0.79,0.51c2.71,1.77,2.99,1.95,4.21,1.54l0.23-0.08  c0.21-0.07,0.54-0.01,0.9,0.14c0.05,0.04,0.09,0.1,0.15,0.13c0.1,0.06,0.2,0.09,0.31,0.11c0.31,0.19,0.63,0.43,0.93,0.76  C376.41,180.85,376.68,181.64,376.45,182.15z M409.46,188.8l0.05,0.14c0.04,0.15-0.14,0.67-0.65,1.12c-0.4,0.35-0.79,0.47-0.95,0.39  c-0.42-0.19-1.03-0.85-1.68-1.55c-0.26-0.28-0.55-0.58-0.85-0.89c0.96-0.95,1.36-2.14,1.03-3.25c-0.1-0.33-0.23-0.63-0.38-0.92  c0.15-0.15,0.3-0.3,0.44-0.45c0.41-0.08,0.8-0.13,1.15-0.12c2.1,0.07,2.69,0.44,3.43,0.9l0.15,0.13c0.01,0.06,0.05,0.36-0.35,0.97  l-0.33,0.51C409.35,187.53,409.14,187.85,409.46,188.8z M405.81,193.51l-0.07,0.17c-0.13,0.07-0.47,0.09-1-0.07l-0.57-0.18  c-2-0.63-2.36-0.75-3.18-0.18l-0.12,0.08c-0.12,0.08-0.66,0.04-1.21-0.31c-0.43-0.28-0.64-0.61-0.61-0.78  c0.07-0.46,0.48-1.16,0.95-1.97c0.16-0.27,0.32-0.56,0.49-0.86c0.36,0.12,0.75,0.18,1.16,0.18c0.23,0,0.46-0.02,0.69-0.05  c0.45-0.07,0.89-0.21,1.32-0.39c0.39,0.39,0.76,0.77,1.08,1.12c0.46,0.49,0.86,0.92,1.26,1.28  C406.12,192.44,405.99,192.9,405.81,193.51z M398.28,189.26c-0.55,0.95-0.99,1.72-1.15,2.49c-0.62,0.3-1.07,0.37-1.62,0.44l-0.2,0  c-0.04-0.04-0.27-0.25-0.34-0.97l-0.06-0.6c-0.21-2.11-0.25-2.49-1.09-3.03l-0.12-0.08c-0.13-0.08-0.32-0.61-0.2-1.28  c0.09-0.52,0.32-0.85,0.5-0.9c0.41-0.11,1.38,0.07,2.32,0.23c0.44,0.08,0.92,0.16,1.41,0.23c0.01,0.19,0.04,0.38,0.1,0.57v0  c0.23,0.78,0.58,1.43,1.02,1.94C398.64,188.63,398.45,188.96,398.28,189.26z M401.98,183.61c1.39-0.26,2.21,0.72,2.5,1.72  c0.18,0.61-0.46,1.33-1.14,1.74c-0.41,0.25-0.87,0.42-1.3,0.49c-1.13,0.17-1.91-0.42-2.32-1.77c-0.05-0.16,0-0.37,0.16-0.62  C400.37,184.36,401.54,183.69,401.98,183.61z M406.94,179.88c-0.2,0.43-0.79,1.01-1.48,1.68c-0.24,0.23-0.49,0.48-0.75,0.74  c-0.65-0.47-1.43-0.73-2.27-0.74c-0.09-0.49-0.17-0.97-0.24-1.4c-0.18-1.18-0.33-2.11-0.75-2.83c-0.17-0.29-0.42-0.51-0.69-0.71  l0.01-0.02c0.05-0.01,0.36-0.05,0.97,0.34l0.5,0.33c1.78,1.17,2.1,1.37,3.05,1.05l0.14-0.05c0.15-0.04,0.67,0.14,1.12,0.64  C406.9,179.33,407.01,179.72,406.94,179.88z M398.75,178.13c0.52-0.06,0.88,0.07,0.97,0.22c0.23,0.4,0.36,1.2,0.5,2.13  c0.08,0.48,0.17,1.02,0.28,1.58c-0.78,0.41-1.59,1.05-2.13,1.79c-0.6-0.08-1.19-0.17-1.72-0.27c-0.7-0.12-1.32-0.23-1.87-0.27  c-0.67-0.66-0.86-1.1-1.11-1.69l-0.06-0.14c0-0.04,0.13-0.33,0.83-0.61l0.55-0.22c1.95-0.77,2.3-0.91,2.58-1.86l0.04-0.14  C397.65,178.51,398.09,178.2,398.75,178.13z M402.57,160.87c-3.31-0.77-6.89-3.31-10.4-7.3c6,0.86,8.1,2.93,10.31,5.12  c1.69,1.68,3.43,3.4,6.86,4.42c-1.55,1.25-3.47,1.74-5.65,1.4c-3.08-0.47-6.17-2.47-8.73-5.43c2.2,1.77,4.6,3.15,7.16,3.74  c0.08,0.02,0.15,0.03,0.23,0.03c0.46,0,0.87-0.31,0.97-0.77C403.45,161.53,403.11,160.99,402.57,160.87z M438.92,236.75l-0.24-0.02  c-0.17-0.01-0.31-0.09-0.43-0.24c-0.3-0.36-0.42-1.08-0.33-1.97l0.1-0.93c0.35-3.22,0.39-3.56-0.53-4.45l-0.17-0.17  c-0.35-0.36-0.46-1.43-0.02-2.55c0.36-0.91,0.95-1.51,1.5-1.53c0.77-0.03,2.16,0.52,3.64,1.12c0.76,0.3,1.61,0.63,2.49,0.94  c-0.11,0.39-0.18,0.78-0.14,1.18c0.11,1.31,0.48,2.42,1.05,3.32c-0.48,0.57-0.96,1.11-1.4,1.59c-1.19,1.32-2.12,2.35-2.54,3.47  c0,0,0,0,0,0.01C440.63,236.88,439.86,236.82,438.92,236.75z M451.37,224.84c0.01,0,0.03,0,0.04,0c2.52,0.07,3.59,2.12,3.74,3.85  c0.11,1.26-1.24,2.32-2.61,2.8c-0.76,0.27-1.56,0.4-2.31,0.35c-2.57-0.14-3.29-2.19-3.43-3.88c-0.04-0.42,0.16-0.85,0.57-1.29  C448.45,225.52,450.54,224.84,451.37,224.84z M454.49,241.71l-0.11,0.2c-0.08,0.14-0.2,0.24-0.37,0.29  c-0.45,0.13-1.13-0.04-1.89-0.47l-0.8-0.45c-2.78-1.57-3.07-1.74-4.24-1.25l-0.22,0.09c-0.45,0.18-1.46-0.15-2.29-0.97  c-0.68-0.67-0.99-1.43-0.8-1.93c0.29-0.76,1.15-1.72,2.16-2.84c0.4-0.45,0.85-0.95,1.3-1.48c0.8,0.55,1.76,0.88,2.87,0.94  c0.13,0.01,0.26,0.01,0.39,0.01c0.64,0,1.3-0.09,1.94-0.25c0.55,0.82,1.05,1.62,1.48,2.35c0.57,0.95,1.07,1.75,1.58,2.42  C455.37,240.03,454.98,240.79,454.49,241.71z M465.37,228.84c0.12,0.12,0.18,0.27,0.19,0.46c0.01,0.47-0.35,1.1-0.99,1.73  l-0.66,0.65c-2.31,2.28-2.55,2.52-2.4,3.79l0.03,0.24c0.05,0.5-0.55,1.4-1.59,1.99c-0.85,0.48-1.68,0.58-2.13,0.24  c-0.65-0.48-1.36-1.65-2.17-3.01c-0.38-0.64-0.82-1.34-1.29-2.06c1.86-1.01,2.94-2.62,2.79-4.34c-0.05-0.63-0.2-1.21-0.39-1.76  c0.45-0.31,0.88-0.59,1.3-0.86c0.75-0.01,1.45,0.05,2.05,0.2c3.27,0.8,4.08,1.58,5.11,2.56L465.37,228.84z M451.13,214.32l0.16-0.17  c0.12-0.12,0.26-0.19,0.46-0.19c0.49,0.03,1.11,0.35,1.74,0.98l0.65,0.65c2.29,2.29,2.53,2.53,3.81,2.38l0.24-0.03  c0.47-0.06,1.4,0.54,2,1.58c0.48,0.85,0.58,1.68,0.26,2.13c-0.49,0.67-1.6,1.38-2.89,2.19c-0.54,0.34-1.14,0.73-1.76,1.15  c-0.88-1.12-2.13-1.85-3.61-2.07c0-0.95,0.04-1.86,0.08-2.67c0.09-1.77,0.16-3.17-0.21-4.3c-0.19-0.58-0.57-1.07-1.09-1.46  C451.02,214.45,451.07,214.39,451.13,214.32z M448.31,215.6c0.95,0.09,1.67,0.48,1.84,1c0.26,0.77,0.19,2.06,0.11,3.56  c-0.04,0.85-0.08,1.82-0.08,2.84c-1.4,0.32-3.1,1.13-4.17,2.21c-1-0.34-1.96-0.71-2.82-1.06c-1.08-0.43-2.01-0.8-2.85-1.03  c-0.95-1.38-1.13-2.22-1.33-3.25l-0.04-0.23c-0.03-0.16,0-0.31,0.11-0.46c0.26-0.38,0.9-0.68,1.76-0.83l0.9-0.15  c3.15-0.54,3.48-0.59,4.08-1.71l0.11-0.2C446.16,215.87,447.14,215.48,448.31,215.6z M457.08,197.26c2.64,0.53,5.36,1.07,9.49-0.28  c-1.11,2.82-3.34,4.95-6.46,6.09c-3.9,1.43-8.59,1.14-13.03-0.62c1.55,0.25,3.11,0.41,4.66,0.41c2.42,0,4.81-0.36,7.05-1.22  c0.51-0.2,0.77-0.78,0.57-1.29s-0.78-0.77-1.29-0.57c-3.95,1.53-9.15,1.39-15.04-0.31C450.18,195.9,453.69,196.59,457.08,197.26z"/><text x="0" y="527" fill="#000000" font-size="5px" font-weight="bold" font-family="'Helvetica Neue', Helvetica, Arial-Unicode, Arial, Sans-serif">Created by iconfield</text><text x="0" y="532" fill="#000000" font-size="5px" font-weight="bold" font-family="'Helvetica Neue', Helvetica, Arial-Unicode, Arial, Sans-serif">from the Noun Project</text></svg>